<svg xmlns="http://www.w3.org/2000/svg" xmlns:xlink="http://www.w3.org/1999/xlink" width="280" zoomAndPan="magnify" viewBox="0 0 210 209.999996" height="280" preserveAspectRatio="xMidYMid meet" version="1.0"><defs><clipPath id="ab6f8e7c47"><path d="M 41 36 L 166 36 L 166 202.921875 L 41 202.921875 Z M 41 36 " clip-rule="nonzero"/></clipPath><clipPath id="71d46339a8"><path d="M 57 15.421875 L 61 15.421875 L 61 19 L 57 19 Z M 57 15.421875 " clip-rule="nonzero"/></clipPath><clipPath id="0de874859a"><path d="M 196 106 L 205.386719 106 L 205.386719 116 L 196 116 Z M 196 106 " clip-rule="nonzero"/></clipPath><clipPath id="ad713bb08d"><path d="M 4.386719 77 L 10 77 L 10 83 L 4.386719 83 Z M 4.386719 77 " clip-rule="nonzero"/></clipPath></defs><path fill="#f7a714" d="M 28.347656 96.316406 C 27.394531 91.058594 29.117188 90.242188 30.082031 89.773438 C 30.789062 89.425781 34.066406 89.050781 35.714844 96.277344 C 36.175781 98.292969 38.179688 107.3125 35.328125 108.007812 C 33.464844 108.460938 29.378906 102.003906 28.347656 96.316406 Z M 28.347656 96.316406 " fill-opacity="1" fill-rule="nonzero"/><path fill="#f7a714" d="M 40.113281 102.871094 C 42.074219 97.902344 43.96875 98.117188 45.03125 98.226562 C 45.820312 98.304688 48.800781 99.714844 46.394531 106.722656 C 45.722656 108.679688 40.914062 119.480469 39.46875 119.152344 C 38.984375 119.039062 37.992188 108.253906 40.113281 102.871094 Z M 40.113281 102.871094 " fill-opacity="1" fill-rule="nonzero"/><path fill="#f7a714" d="M 27.800781 108.089844 C 23.042969 105.664062 21.765625 107.082031 21.039062 107.867188 C 20.5 108.449219 19.199219 111.480469 25.648438 115.136719 C 27.445312 116.15625 38.195312 121.0625 39.0625 119.855469 C 39.355469 119.453125 32.953125 110.714844 27.800781 108.089844 Z M 27.800781 108.089844 " fill-opacity="1" fill-rule="nonzero"/><path fill="#f7a714" d="M 32.703125 124.421875 C 27.632812 122.746094 26.585938 124.34375 25.984375 125.230469 C 25.542969 125.882812 24.714844 129.078125 31.636719 131.714844 C 33.570312 132.453125 44.9375 135.671875 45.613281 134.351562 C 45.839844 133.90625 38.191406 126.238281 32.703125 124.421875 Z M 32.703125 124.421875 " fill-opacity="1" fill-rule="nonzero"/><path fill="#f7a714" d="M 42.21875 140.988281 C 37.144531 139.308594 36.097656 140.90625 35.496094 141.792969 C 35.054688 142.445312 34.226562 145.640625 41.152344 148.28125 C 43.082031 149.015625 54.453125 152.234375 55.128906 150.914062 C 55.355469 150.46875 47.707031 142.800781 42.21875 140.988281 Z M 42.21875 140.988281 " fill-opacity="1" fill-rule="nonzero"/><path fill="#f7a714" d="M 53.039062 157.875 C 48.511719 156.707031 47.6875 158.164062 47.214844 158.976562 C 46.863281 159.570312 46.328125 162.414062 52.539062 164.3125 C 54.269531 164.84375 64.398438 166.992188 64.910156 165.796875 C 65.082031 165.394531 57.945312 159.136719 53.039062 157.875 Z M 53.039062 157.875 " fill-opacity="1" fill-rule="nonzero"/><path fill="#f7a714" d="M 47.128906 118.476562 C 49.355469 113.914062 51.222656 114.285156 52.273438 114.480469 C 53.050781 114.625 55.925781 116.230469 53.140625 122.695312 C 52.363281 124.496094 46.980469 134.359375 45.5625 133.917969 C 45.085938 133.769531 44.71875 123.410156 47.128906 118.476562 Z M 47.128906 118.476562 " fill-opacity="1" fill-rule="nonzero"/><path fill="#f7a714" d="M 55.183594 134.4375 C 57.007812 129.699219 58.902344 129.90625 59.964844 130.011719 C 60.75 130.085938 63.757812 131.433594 61.542969 138.117188 C 60.921875 139.980469 56.414062 150.269531 54.964844 149.957031 C 54.476562 149.851562 53.210938 139.5625 55.183594 134.4375 Z M 55.183594 134.4375 " fill-opacity="1" fill-rule="nonzero"/><path fill="#f7a714" d="M 63.625 150.433594 C 64.953125 145.539062 66.859375 145.550781 67.925781 145.546875 C 68.714844 145.539062 71.84375 146.574219 70.320312 153.449219 C 69.898438 155.367188 66.460938 166.0625 64.988281 165.898438 C 64.492188 165.84375 62.183594 155.738281 63.625 150.433594 Z M 63.625 150.433594 " fill-opacity="1" fill-rule="nonzero"/><path fill="#f7a716" d="M 73.1875 178.984375 C 73.039062 178.773438 58.472656 157.9375 48.207031 140.46875 C 37.902344 122.925781 34.460938 107.527344 34.429688 107.375 L 35.804688 107.074219 C 35.839844 107.226562 39.238281 122.417969 49.421875 139.753906 C 59.65625 157.175781 74.195312 177.96875 74.339844 178.175781 Z M 73.1875 178.984375 " fill-opacity="1" fill-rule="nonzero"/><path fill="#f7a714" d="M 155.171875 44.277344 C 154.292969 40.003906 152.738281 39.910156 151.863281 39.847656 C 151.21875 39.796875 148.621094 40.511719 149.574219 46.492188 C 149.839844 48.164062 151.070312 55.609375 153.441406 55.265625 C 154.992188 55.042969 156.121094 48.90625 155.171875 44.277344 Z M 155.171875 44.277344 " fill-opacity="1" fill-rule="nonzero"/><path fill="#f7a714" d="M 148.253906 52.835938 C 145.253906 49.667969 143.882812 50.410156 143.105469 50.816406 C 142.535156 51.113281 140.703125 53.089844 144.667969 57.667969 C 145.773438 58.945312 152.703125 65.664062 153.703125 64.972656 C 154.035156 64.742188 151.5 56.265625 148.253906 52.835938 Z M 148.253906 52.835938 " fill-opacity="1" fill-rule="nonzero"/><path fill="#f7a714" d="M 159.171875 53.035156 C 162.042969 49.746094 163.441406 50.429688 164.230469 50.804688 C 164.816406 51.078125 166.722656 52.980469 162.953125 57.71875 C 161.902344 59.039062 155.246094 66.035156 154.222656 65.386719 C 153.878906 65.167969 156.066406 56.59375 159.171875 53.035156 Z M 159.171875 53.035156 " fill-opacity="1" fill-rule="nonzero"/><path fill="#f7a714" d="M 160.433594 66.910156 C 163.769531 64.089844 165.046875 64.980469 165.773438 65.46875 C 166.308594 65.832031 167.910156 68 163.464844 72.109375 C 162.222656 73.257812 154.589844 79.164062 153.675781 78.367188 C 153.367188 78.101562 156.828125 69.957031 160.433594 66.910156 Z M 160.433594 66.910156 " fill-opacity="1" fill-rule="nonzero"/><path fill="#f7a714" d="M 158.273438 82.359375 C 161.605469 79.542969 162.882812 80.433594 163.609375 80.921875 C 164.144531 81.28125 165.746094 83.453125 161.300781 87.5625 C 160.0625 88.710938 152.425781 94.617188 151.511719 93.820312 C 151.203125 93.554688 154.664062 85.410156 158.273438 82.359375 Z M 158.273438 82.359375 " fill-opacity="1" fill-rule="nonzero"/><path fill="#f7a714" d="M 155.214844 98.460938 C 158.292969 96.195312 159.359375 97.046875 159.964844 97.515625 C 160.410156 97.863281 161.683594 99.855469 157.558594 103.1875 C 156.40625 104.117188 149.382812 108.832031 148.632812 108.082031 C 148.378906 107.832031 151.882812 100.914062 155.214844 98.460938 Z M 155.214844 98.460938 " fill-opacity="1" fill-rule="nonzero"/><path fill="#f7a714" d="M 147.691406 66.796875 C 144.613281 64.019531 143.308594 64.871094 142.574219 65.339844 C 142.03125 65.683594 140.335938 67.777344 144.417969 71.828125 C 145.558594 72.957031 152.640625 78.789062 153.582031 78.023438 C 153.898438 77.769531 151.019531 69.804688 147.691406 66.796875 Z M 147.691406 66.796875 " fill-opacity="1" fill-rule="nonzero"/><path fill="#d6d795" d="M 146.449219 81.351562 C 143.625 78.316406 142.253906 79.054688 141.476562 79.457031 C 140.90625 79.75 139.035156 81.691406 142.753906 86.078125 C 143.789062 87.304688 150.339844 93.726562 151.34375 93.046875 C 151.679688 92.820312 149.503906 84.636719 146.449219 81.351562 Z M 146.449219 81.351562 " fill-opacity="1" fill-rule="nonzero"/><path fill="#d6d795" d="M 144.929688 96.050781 C 142.425781 92.742188 140.988281 93.335938 140.175781 93.65625 C 139.578125 93.890625 137.519531 95.628906 140.769531 100.375 C 141.675781 101.699219 147.535156 108.757812 148.605469 108.183594 C 148.964844 107.992188 147.636719 99.628906 144.929688 96.050781 Z M 144.929688 96.050781 " fill-opacity="1" fill-rule="nonzero"/><path fill="#f7a716" d="M 146.503906 120.628906 L 145.132812 120.3125 C 145.179688 120.109375 149.859375 99.921875 152.308594 83.601562 C 154.738281 67.378906 152.691406 54.847656 152.671875 54.722656 L 154.058594 54.488281 C 154.078125 54.617188 156.164062 67.355469 153.699219 83.8125 C 151.242188 100.1875 146.550781 120.429688 146.503906 120.628906 Z M 146.503906 120.628906 " fill-opacity="1" fill-rule="nonzero"/><g clip-path="url(#ab6f8e7c47)"><path fill="#5f755c" d="M 77.308594 39.542969 C 86.878906 36.082031 110.417969 33.917969 124.800781 41.859375 C 139.769531 50.121094 150.398438 59.445312 152.09375 74.25 C 153.792969 89.058594 152.25 85.972656 153.175781 93.070312 C 154.101562 100.164062 158.339844 105.796875 158.339844 105.796875 C 158.339844 105.796875 165.125 115.359375 165.511719 117.054688 C 165.894531 118.753906 165.828125 121.269531 164.046875 121.683594 C 162.570312 122.023438 156.179688 123.457031 155.640625 124.921875 C 155.101562 126.386719 158.03125 132.054688 156.988281 133.519531 C 155.949219 134.988281 153.984375 136.566406 153.984375 136.566406 C 153.984375 136.566406 155.757812 138.265625 155.21875 139.921875 C 154.675781 141.582031 152.558594 143.511719 152.558594 143.511719 C 152.558594 143.511719 153.636719 154 150.9375 156.082031 C 148.238281 158.164062 146.3125 159.550781 142.148438 159.398438 C 137.984375 159.242188 124.261719 156.3125 121.871094 158.316406 C 119.480469 160.320312 117.8125 163.613281 117.398438 170.8125 C 116.988281 178.011719 119.867188 202.898438 119.867188 202.898438 C 119.867188 202.898438 103.132812 191.480469 94.34375 188.472656 C 85.554688 185.464844 68.976562 182.226562 68.976562 182.226562 C 68.976562 182.226562 71.832031 154.921875 68.976562 143.585938 C 66.125 132.25 48.316406 122.992188 43.226562 103.789062 C 38.136719 84.585938 44.390625 67.074219 48.777344 59.828125 C 54.460938 50.4375 66.75 43.359375 77.308594 39.542969 Z M 77.308594 39.542969 " fill-opacity="1" fill-rule="nonzero"/></g><path fill="#c9dd9c" d="M 57.78125 101.871094 C 57.78125 101.871094 58.324219 103.027344 62.332031 102.644531 C 66.339844 102.257812 74.515625 101.5625 77.597656 101.871094 C 80.679688 102.179688 87.003906 104.03125 89.546875 105.726562 C 92.089844 107.425781 96.792969 109.816406 96.792969 109.816406 C 96.792969 109.816406 90.472656 116.910156 88.621094 119.226562 C 86.769531 121.539062 85.078125 126.011719 83.148438 126.9375 C 81.222656 127.863281 79.835938 127.863281 78.601562 127.246094 C 77.367188 126.628906 76.597656 126.011719 76.519531 124.855469 C 76.441406 123.699219 78.445312 119.378906 80.988281 116.910156 C 83.535156 114.445312 84.554688 113.171875 84.554688 113.171875 C 84.554688 113.171875 85.34375 112.070312 84.765625 111.4375 C 84.1875 110.800781 83.070312 111.726562 83.070312 111.726562 C 83.070312 111.726562 80.292969 114.445312 76.207031 115.367188 C 72.121094 116.292969 67.574219 116.835938 63.71875 113.980469 C 59.863281 111.128906 59.246094 109.121094 58.550781 107.039062 C 57.859375 104.957031 57.78125 101.871094 57.78125 101.871094 Z M 57.78125 101.871094 " fill-opacity="1" fill-rule="nonzero"/><path fill="#c9dd9c" d="M 109.570312 59.777344 C 109.5625 59.714844 109.542969 59.59375 109.570312 59.777344 Z M 109.570312 59.777344 " fill-opacity="1" fill-rule="nonzero"/><path fill="#c9dd9c" d="M 70.273438 88.667969 C 70.273438 88.671875 70.277344 88.675781 70.285156 88.683594 C 70.277344 88.675781 70.273438 88.671875 70.273438 88.667969 Z M 70.273438 88.667969 " fill-opacity="1" fill-rule="nonzero"/><path fill="#c9dd9c" d="M 81.535156 71.863281 C 81.535156 71.855469 81.53125 71.847656 81.53125 71.84375 C 81.53125 71.835938 81.527344 71.828125 81.527344 71.820312 C 81.53125 71.832031 81.53125 71.847656 81.535156 71.863281 Z M 81.535156 71.863281 " fill-opacity="1" fill-rule="nonzero"/><path fill="#c9dd9c" d="M 71.230469 89.238281 C 71.230469 89.242188 71.257812 89.253906 71.292969 89.265625 C 71.257812 89.25 71.230469 89.234375 71.230469 89.238281 Z M 71.230469 89.238281 " fill-opacity="1" fill-rule="nonzero"/><path fill="#c9dd9c" d="M 81.539062 71.890625 C 81.539062 71.90625 81.542969 71.925781 81.546875 71.941406 C 81.542969 71.914062 81.539062 71.890625 81.535156 71.859375 C 81.535156 71.871094 81.535156 71.878906 81.539062 71.890625 Z M 81.539062 71.890625 " fill-opacity="1" fill-rule="nonzero"/><path fill="#c9dd9c" d="M 115.238281 89.089844 C 115.199219 89.050781 115.140625 89 115.125 89.003906 C 115.128906 89.003906 115.207031 89.0625 115.238281 89.089844 Z M 115.238281 89.089844 " fill-opacity="1" fill-rule="nonzero"/><path fill="#c9dd9c" d="M 96.777344 62.648438 C 96.785156 62.667969 96.796875 62.695312 96.800781 62.710938 C 96.792969 62.691406 96.785156 62.667969 96.777344 62.648438 Z M 96.777344 62.648438 " fill-opacity="1" fill-rule="nonzero"/><path fill="#c9dd9c" d="M 144.546875 83.464844 C 144.238281 74.828125 138.273438 71.433594 138.273438 71.433594 C 138.273438 71.433594 138.121094 65.582031 134.675781 61.765625 C 131.425781 58.160156 124.859375 57.445312 124.859375 57.445312 C 124.859375 57.445312 123.78125 55.902344 119.230469 53.203125 C 116.007812 51.289062 111.425781 51.507812 109.035156 51.796875 C 109.089844 51.875 109.148438 51.949219 109.203125 52.03125 C 111.808594 55.824219 112.441406 60.625 112.007812 65.117188 C 111.945312 65.789062 111.507812 66.285156 110.808594 66.320312 C 110.203125 66.34375 109.546875 65.746094 109.609375 65.117188 C 109.730469 63.839844 109.773438 62.550781 109.703125 61.265625 C 109.6875 60.980469 109.667969 60.699219 109.640625 60.414062 C 109.628906 60.285156 109.617188 60.152344 109.601562 60.023438 C 109.59375 59.945312 109.585938 59.871094 109.574219 59.796875 C 109.574219 59.792969 109.574219 59.785156 109.574219 59.777344 C 109.488281 59.234375 109.398438 58.699219 109.273438 58.164062 C 109.152344 57.652344 109.007812 57.144531 108.839844 56.648438 C 108.761719 56.417969 108.679688 56.1875 108.589844 55.960938 C 108.554688 55.867188 108.515625 55.773438 108.480469 55.679688 C 108.464844 55.652344 108.417969 55.535156 108.390625 55.484375 C 108 54.613281 107.523438 53.777344 106.964844 53.003906 C 106.917969 52.9375 106.871094 52.871094 106.824219 52.808594 C 106.8125 52.792969 106.777344 52.75 106.753906 52.71875 C 106.75 52.710938 106.742188 52.707031 106.742188 52.703125 C 106.703125 52.65625 106.660156 52.605469 106.621094 52.554688 C 106.476562 52.378906 106.328125 52.210938 106.171875 52.042969 C 105.84375 51.683594 105.492188 51.347656 105.128906 51.035156 C 104.925781 50.859375 104.820312 50.625 104.789062 50.375 C 103.371094 49.859375 101.242188 49.402344 98.082031 49.320312 C 90.816406 49.132812 85.617188 54.4375 85.617188 54.4375 C 85.617188 54.4375 82.535156 52.378906 77.316406 54.488281 C 72.203125 56.554688 70.890625 61.996094 70.890625 61.996094 C 70.890625 61.996094 67.421875 61.765625 62.332031 65.699219 C 57.242188 69.628906 57.398438 77.574219 57.398438 77.574219 C 54.75 79.296875 53.363281 83.769531 52.746094 85.828125 C 52.128906 87.882812 51.203125 91.585938 54.902344 96.933594 C 58.605469 102.28125 61.996094 100.328125 65.902344 99.609375 C 69.808594 98.890625 78.445312 99.195312 85.847656 101.792969 C 93.246094 104.390625 94.789062 105.78125 101.675781 109.378906 C 108.5625 112.976562 115.761719 109.894531 119.152344 106.808594 C 121.46875 104.699219 121.964844 101.683594 122.042969 99.980469 C 121.898438 99.351562 121.730469 98.726562 121.539062 98.113281 C 121.394531 97.660156 121.238281 97.214844 121.070312 96.769531 C 121.027344 96.65625 120.980469 96.539062 120.933594 96.421875 C 120.914062 96.382812 120.875 96.308594 120.851562 96.265625 C 120.824219 96.21875 120.832031 96.230469 120.851562 96.265625 C 120.863281 96.289062 120.878906 96.316406 120.910156 96.367188 C 120.800781 96.179688 120.730469 95.960938 120.640625 95.761719 C 120.277344 94.980469 119.859375 94.226562 119.390625 93.503906 C 119.15625 93.148438 118.914062 92.808594 118.660156 92.46875 C 118.632812 92.4375 118.605469 92.402344 118.578125 92.371094 C 118.503906 92.277344 118.429688 92.183594 118.355469 92.09375 C 118.226562 91.941406 118.09375 91.785156 117.957031 91.632812 C 117.367188 90.96875 116.730469 90.347656 116.058594 89.769531 C 115.890625 89.625 115.714844 89.476562 115.539062 89.335938 C 115.453125 89.261719 115.359375 89.191406 115.273438 89.121094 C 115.265625 89.117188 115.257812 89.105469 115.246094 89.097656 C 115.242188 89.09375 115.222656 89.082031 115.183594 89.046875 C 114.78125 88.746094 114.375 88.449219 113.957031 88.167969 C 112.875 87.433594 111.75 86.757812 110.597656 86.140625 C 110.003906 85.824219 109.402344 85.523438 108.792969 85.234375 C 108.484375 85.089844 108.167969 84.945312 107.851562 84.804688 C 107.71875 84.746094 107.585938 84.6875 107.453125 84.628906 C 107.460938 84.632812 107.324219 84.578125 107.269531 84.554688 C 107.234375 84.539062 107.195312 84.523438 107.183594 84.519531 C 105.929688 83.996094 104.644531 83.527344 103.367188 83.070312 C 102.078125 82.613281 100.773438 82.195312 99.441406 81.890625 C 99.089844 81.808594 98.734375 81.738281 98.378906 81.675781 C 98.210938 81.644531 98.042969 81.617188 97.875 81.59375 C 97.632812 81.554688 97.804688 81.585938 97.855469 81.589844 C 97.78125 81.582031 97.707031 81.574219 97.628906 81.5625 C 96.925781 81.488281 96.222656 81.460938 95.519531 81.449219 C 94.128906 81.433594 92.742188 81.496094 91.351562 81.441406 C 90.046875 81.390625 88.722656 81.230469 87.433594 81.003906 C 86.203125 80.785156 84.996094 80.433594 83.890625 79.847656 C 82.789062 79.269531 81.902344 78.445312 81.175781 77.441406 C 81.148438 77.398438 81.121094 77.359375 81.09375 77.316406 C 79.429688 77.328125 77.765625 77.292969 76.128906 76.980469 C 75.230469 76.808594 74.371094 76.527344 73.542969 76.144531 C 72.777344 75.789062 72.136719 75.234375 71.390625 74.851562 C 70.792969 74.546875 70.671875 73.757812 70.960938 73.210938 C 71.273438 72.613281 72.042969 72.492188 72.601562 72.78125 C 73.332031 73.15625 73.960938 73.699219 74.710938 74.050781 C 74.730469 74.058594 74.835938 74.105469 74.890625 74.128906 C 74.949219 74.152344 75.039062 74.1875 75.054688 74.195312 C 75.238281 74.261719 75.425781 74.324219 75.613281 74.382812 C 75.992188 74.5 76.378906 74.589844 76.765625 74.664062 C 76.972656 74.707031 77.1875 74.75 77.398438 74.769531 C 77.429688 74.773438 77.457031 74.777344 77.484375 74.777344 C 77.585938 74.789062 77.683594 74.800781 77.785156 74.808594 C 78.1875 74.851562 78.589844 74.875 78.992188 74.890625 C 79.285156 74.902344 79.574219 74.910156 79.863281 74.914062 C 79.792969 74.71875 79.722656 74.519531 79.65625 74.324219 C 79.3125 73.273438 79.101562 72.144531 79.082031 71.035156 C 79.035156 68.46875 80.097656 65.917969 81.921875 64.121094 C 82.398438 63.648438 83.132812 63.675781 83.617188 64.121094 C 84.089844 64.554688 84.066406 65.375 83.617188 65.816406 C 83.410156 66.019531 83.214844 66.230469 83.03125 66.453125 C 83.011719 66.476562 82.992188 66.5 82.976562 66.519531 C 82.957031 66.542969 82.914062 66.601562 82.894531 66.628906 C 82.808594 66.746094 82.730469 66.867188 82.648438 66.988281 C 82.492188 67.230469 82.351562 67.484375 82.21875 67.742188 C 82.15625 67.867188 82.097656 68 82.039062 68.128906 C 82.011719 68.199219 81.984375 68.265625 81.957031 68.335938 C 81.855469 68.609375 81.769531 68.886719 81.699219 69.164062 C 81.628906 69.429688 81.527344 69.738281 81.523438 70.011719 C 81.523438 70.007812 81.523438 70.007812 81.523438 70.003906 C 81.523438 70.027344 81.519531 70.050781 81.519531 70.074219 C 81.511719 70.140625 81.507812 70.203125 81.5 70.265625 C 81.492188 70.394531 81.480469 70.523438 81.480469 70.648438 C 81.472656 70.925781 81.476562 71.207031 81.5 71.484375 C 81.507812 71.601562 81.519531 71.71875 81.53125 71.839844 C 81.578125 72.023438 81.5625 71.996094 81.546875 71.9375 C 81.546875 71.957031 81.550781 71.96875 81.550781 71.984375 C 81.59375 72.238281 81.644531 72.492188 81.703125 72.746094 C 81.824219 73.269531 81.988281 73.78125 82.179688 74.28125 C 82.207031 74.347656 82.230469 74.414062 82.257812 74.476562 C 82.261719 74.484375 82.261719 74.488281 82.265625 74.496094 C 82.316406 74.601562 82.363281 74.714844 82.417969 74.824219 C 82.535156 75.0625 82.660156 75.300781 82.792969 75.53125 C 82.925781 75.757812 83.070312 75.980469 83.222656 76.195312 C 83.238281 76.21875 83.261719 76.257812 83.289062 76.289062 C 83.300781 76.300781 83.308594 76.3125 83.320312 76.324219 C 83.398438 76.421875 83.480469 76.515625 83.566406 76.609375 C 83.730469 76.789062 83.90625 76.964844 84.089844 77.121094 C 84.109375 77.140625 84.152344 77.183594 84.1875 77.210938 C 84.203125 77.21875 84.214844 77.226562 84.230469 77.234375 C 84.347656 77.320312 84.472656 77.402344 84.597656 77.484375 C 84.84375 77.640625 85.097656 77.78125 85.363281 77.90625 C 85.421875 77.933594 85.480469 77.960938 85.539062 77.988281 C 85.550781 77.996094 85.558594 78 85.566406 78.003906 C 85.703125 78.054688 85.835938 78.109375 85.972656 78.160156 C 86.53125 78.355469 87.101562 78.5 87.679688 78.617188 C 87.972656 78.675781 88.265625 78.726562 88.5625 78.769531 C 88.628906 78.78125 88.691406 78.789062 88.757812 78.796875 C 88.773438 78.800781 88.785156 78.800781 88.796875 78.804688 C 88.941406 78.820312 89.085938 78.839844 89.230469 78.859375 C 89.863281 78.933594 90.492188 79 91.128906 79.03125 C 92.496094 79.097656 93.863281 79.039062 95.234375 79.046875 C 96.675781 79.054688 98.105469 79.167969 99.523438 79.457031 C 102.175781 79.992188 104.757812 80.976562 107.265625 81.980469 C 109.761719 82.972656 112.179688 84.15625 114.441406 85.613281 C 117.648438 87.683594 120.488281 90.300781 122.292969 93.707031 C 123.136719 95.304688 123.753906 96.996094 124.203125 98.734375 C 126.367188 98.777344 129.667969 98.808594 131.792969 98.679688 C 135.1875 98.472656 138.167969 96.933594 139.402344 95.699219 C 140.640625 94.46875 144.855469 92.101562 144.546875 83.464844 Z M 95.527344 92.933594 C 96.773438 92.453125 98.152344 92.289062 99.480469 92.40625 C 101.800781 92.617188 103.882812 93.546875 105.953125 94.554688 C 107.824219 95.464844 109.683594 96.554688 111.078125 98.128906 C 111.523438 98.632812 111.542969 99.324219 111.078125 99.824219 C 110.660156 100.285156 109.800781 100.296875 109.382812 99.824219 C 109.019531 99.414062 108.625 99.039062 108.203125 98.691406 C 108.136719 98.636719 107.867188 98.4375 108.066406 98.582031 C 107.945312 98.496094 107.832031 98.410156 107.710938 98.324219 C 107.496094 98.175781 107.28125 98.03125 107.0625 97.890625 C 106.246094 97.378906 105.390625 96.9375 104.519531 96.519531 C 104.085938 96.3125 103.652344 96.109375 103.210938 95.910156 C 103.089844 95.855469 102.96875 95.796875 102.84375 95.742188 C 102.792969 95.722656 102.742188 95.699219 102.691406 95.675781 C 102.6875 95.675781 102.6875 95.671875 102.683594 95.671875 C 102.433594 95.574219 102.179688 95.472656 101.925781 95.386719 C 101.4375 95.214844 100.933594 95.070312 100.425781 94.960938 C 100.289062 94.929688 100.148438 94.902344 100.007812 94.878906 C 99.957031 94.871094 99.808594 94.84375 99.773438 94.839844 C 99.539062 94.808594 99.296875 94.789062 99.058594 94.777344 C 98.792969 94.765625 98.527344 94.765625 98.261719 94.78125 C 98.136719 94.785156 98.015625 94.796875 97.890625 94.808594 C 97.875 94.808594 97.8125 94.816406 97.773438 94.820312 C 97.753906 94.820312 97.738281 94.824219 97.734375 94.824219 C 97.195312 94.914062 96.675781 95.054688 96.164062 95.25 C 95.535156 95.492188 94.871094 94.980469 94.6875 94.414062 C 94.476562 93.75 94.941406 93.160156 95.527344 92.933594 Z M 71.03125 89.136719 C 71.109375 89.175781 71.191406 89.214844 71.269531 89.25 C 71.289062 89.261719 71.300781 89.265625 71.3125 89.273438 C 71.332031 89.28125 71.351562 89.285156 71.355469 89.289062 C 71.734375 89.433594 72.125 89.546875 72.523438 89.628906 C 72.640625 89.652344 72.761719 89.671875 72.882812 89.695312 C 72.902344 89.695312 72.917969 89.699219 72.9375 89.703125 C 72.984375 89.703125 73.46875 89.75 73.519531 89.753906 C 73.933594 89.777344 74.347656 89.777344 74.757812 89.75 C 74.992188 89.734375 75.226562 89.714844 75.460938 89.6875 C 75.515625 89.683594 75.710938 89.652344 75.652344 89.664062 C 75.765625 89.648438 75.875 89.632812 75.984375 89.613281 C 76.492188 89.53125 76.992188 89.429688 77.496094 89.320312 C 79.445312 88.898438 81.40625 88.371094 83.417969 88.382812 C 85.367188 88.394531 87.21875 88.898438 88.765625 90.105469 C 89.292969 90.519531 89.160156 91.371094 88.765625 91.804688 C 88.5625 92.023438 88.210938 92.15625 87.917969 92.15625 C 87.570312 92.15625 87.328125 92.007812 87.066406 91.804688 C 87.296875 91.980469 86.945312 91.722656 86.890625 91.6875 C 86.800781 91.628906 86.707031 91.570312 86.613281 91.519531 C 86.507812 91.457031 86.398438 91.402344 86.285156 91.347656 C 86.230469 91.320312 86.171875 91.292969 86.117188 91.269531 C 85.894531 91.164062 86.136719 91.265625 86.148438 91.28125 C 86.105469 91.226562 85.910156 91.191406 85.84375 91.167969 C 85.722656 91.128906 85.605469 91.089844 85.484375 91.058594 C 85.261719 90.992188 85.03125 90.941406 84.800781 90.894531 C 84.714844 90.878906 84.609375 90.847656 84.507812 90.835938 C 84.550781 90.84375 84.5625 90.851562 84.464844 90.84375 C 84.402344 90.835938 84.335938 90.828125 84.273438 90.824219 C 84.035156 90.804688 83.796875 90.792969 83.558594 90.785156 C 83.0625 90.777344 82.570312 90.800781 82.078125 90.851562 C 82.015625 90.859375 81.953125 90.867188 81.890625 90.871094 C 81.851562 90.878906 81.78125 90.886719 81.757812 90.890625 C 81.703125 90.898438 81.644531 90.90625 81.589844 90.917969 C 81.34375 90.953125 81.101562 90.996094 80.859375 91.042969 C 80.355469 91.140625 79.855469 91.246094 79.355469 91.359375 C 78.335938 91.589844 77.316406 91.828125 76.28125 91.980469 C 74.433594 92.25 72.484375 92.289062 70.710938 91.605469 C 69.804688 91.253906 68.96875 90.777344 68.269531 90.09375 C 67.582031 89.421875 67.066406 88.582031 66.675781 87.707031 C 65.8125 85.753906 65.3125 83.675781 64.816406 81.609375 C 64.660156 80.957031 65.019531 80.335938 65.652344 80.132812 C 66.257812 79.9375 66.980469 80.359375 67.128906 80.972656 C 67.40625 82.125 67.683594 83.28125 68.027344 84.417969 C 68.1875 84.964844 68.367188 85.503906 68.566406 86.039062 C 68.609375 86.148438 68.652344 86.257812 68.695312 86.367188 C 68.714844 86.414062 68.8125 86.636719 68.707031 86.402344 C 68.730469 86.449219 68.75 86.496094 68.769531 86.542969 C 68.871094 86.773438 68.980469 86.996094 69.101562 87.21875 C 69.214844 87.421875 69.332031 87.621094 69.464844 87.816406 C 69.492188 87.855469 69.539062 87.925781 69.558594 87.949219 C 69.617188 88.019531 69.675781 88.09375 69.734375 88.160156 C 69.878906 88.320312 70.035156 88.472656 70.195312 88.613281 C 70.230469 88.640625 70.265625 88.671875 70.296875 88.699219 C 70.320312 88.714844 70.332031 88.730469 70.34375 88.738281 C 70.402344 88.773438 70.472656 88.820312 70.484375 88.828125 C 70.667969 88.9375 70.84375 89.039062 71.03125 89.136719 Z M 119.253906 79.28125 C 118.589844 79.496094 118.007812 79.023438 117.777344 78.445312 C 117.765625 78.417969 117.757812 78.394531 117.75 78.375 C 117.734375 78.328125 117.710938 78.285156 117.691406 78.246094 C 117.636719 78.125 117.582031 78.003906 117.523438 77.886719 C 117.414062 77.664062 117.296875 77.445312 117.171875 77.230469 C 117.039062 77.003906 116.902344 76.777344 116.753906 76.558594 C 116.679688 76.449219 116.605469 76.34375 116.527344 76.234375 C 116.488281 76.179688 116.253906 75.832031 116.425781 76.09375 C 116.15625 75.675781 115.757812 75.296875 115.402344 74.945312 C 115.214844 74.761719 115.019531 74.582031 114.824219 74.410156 C 114.726562 74.324219 114.625 74.238281 114.523438 74.15625 C 114.464844 74.109375 114.40625 74.0625 114.351562 74.019531 C 114.242188 73.933594 114.421875 74.074219 114.421875 74.074219 C 114.449219 74.011719 113.359375 73.351562 113.253906 73.289062 C 112.851562 73.050781 112.433594 72.832031 112.007812 72.644531 C 111.988281 72.636719 111.914062 72.601562 111.875 72.585938 C 111.769531 72.546875 111.667969 72.507812 111.5625 72.46875 C 111.359375 72.390625 111.148438 72.320312 110.941406 72.257812 C 110.492188 72.121094 110.039062 72.011719 109.574219 71.929688 C 109.535156 71.921875 109.421875 71.90625 109.351562 71.894531 C 109.238281 71.875 109.121094 71.867188 109.007812 71.855469 C 108.714844 71.828125 108.421875 71.804688 108.125 71.792969 C 107.496094 71.769531 106.863281 71.769531 106.234375 71.769531 C 105.015625 71.773438 103.8125 71.742188 102.609375 71.550781 C 101.535156 71.375 100.457031 71.035156 99.53125 70.464844 C 98.488281 69.820312 97.703125 68.910156 97.019531 67.90625 C 95.730469 66.023438 94.5 63.953125 93.964844 61.714844 C 93.808594 61.0625 94.167969 60.445312 94.800781 60.238281 C 95.402344 60.042969 96.132812 60.464844 96.277344 61.078125 C 96.355469 61.410156 96.449219 61.738281 96.5625 62.058594 C 96.613281 62.210938 96.667969 62.363281 96.726562 62.511719 C 96.746094 62.558594 96.761719 62.605469 96.78125 62.648438 C 96.765625 62.605469 96.757812 62.585938 96.804688 62.710938 C 96.804688 62.714844 96.808594 62.71875 96.808594 62.722656 C 97.070312 63.316406 97.367188 63.890625 97.6875 64.457031 C 98 65 98.332031 65.53125 98.667969 66.0625 C 98.832031 66.316406 99 66.574219 99.175781 66.820312 C 99.246094 66.925781 99.320312 67.023438 99.394531 67.125 C 99.402344 67.132812 99.535156 67.300781 99.570312 67.34375 C 99.753906 67.558594 99.949219 67.765625 100.160156 67.960938 C 100.230469 68.023438 100.300781 68.082031 100.375 68.144531 C 100.304688 68.082031 100.523438 68.25 100.578125 68.289062 C 100.792969 68.433594 101.019531 68.558594 101.25 68.671875 C 101.304688 68.699219 101.519531 68.785156 101.488281 68.777344 C 101.582031 68.8125 101.675781 68.847656 101.769531 68.878906 C 102.25 69.042969 102.746094 69.160156 103.246094 69.238281 C 103.28125 69.246094 103.308594 69.25 103.332031 69.253906 C 103.375 69.257812 103.421875 69.265625 103.464844 69.269531 C 103.597656 69.28125 103.726562 69.296875 103.859375 69.308594 C 104.117188 69.328125 104.378906 69.34375 104.640625 69.351562 C 106.976562 69.441406 109.3125 69.253906 111.582031 69.945312 C 115.449219 71.128906 118.597656 74.058594 120.09375 77.808594 C 120.335938 78.429688 119.8125 79.097656 119.253906 79.28125 Z M 137.261719 87.4375 C 136.761719 87.757812 135.867188 87.585938 135.621094 87.007812 C 135.285156 86.230469 134.890625 85.484375 134.421875 84.78125 C 134.304688 84.605469 134.183594 84.433594 134.058594 84.261719 C 134.046875 84.25 134.039062 84.234375 134.027344 84.222656 C 134.019531 84.210938 134.003906 84.191406 133.976562 84.160156 C 133.914062 84.085938 133.855469 84.007812 133.792969 83.933594 C 133.53125 83.628906 133.253906 83.332031 132.960938 83.054688 C 132.808594 82.910156 132.652344 82.773438 132.488281 82.636719 C 132.441406 82.597656 132.394531 82.558594 132.34375 82.523438 C 132.320312 82.503906 132.226562 82.429688 132.195312 82.410156 C 131.835938 82.152344 131.453125 81.917969 131.0625 81.710938 C 130.867188 81.609375 130.671875 81.519531 130.472656 81.429688 C 130.417969 81.40625 130.367188 81.386719 130.3125 81.367188 C 130.21875 81.332031 130.121094 81.296875 130.023438 81.261719 C 129.738281 81.164062 129.445312 81.082031 129.152344 81.011719 C 128.84375 81.5625 128.488281 82.09375 128.089844 82.59375 C 127.667969 83.117188 126.828125 82.992188 126.390625 82.59375 C 125.878906 82.125 126 81.386719 126.390625 80.898438 C 126.410156 80.875 126.421875 80.859375 126.429688 80.851562 C 126.4375 80.839844 126.445312 80.828125 126.457031 80.8125 C 126.496094 80.761719 126.53125 80.714844 126.566406 80.664062 C 126.65625 80.539062 126.742188 80.410156 126.824219 80.28125 C 126.996094 80.007812 127.15625 79.730469 127.296875 79.4375 C 127.367188 79.300781 127.429688 79.160156 127.492188 79.019531 C 127.496094 79.015625 127.496094 79.015625 127.496094 79.011719 C 127.523438 78.9375 127.554688 78.867188 127.578125 78.796875 C 127.6875 78.507812 127.78125 78.214844 127.859375 77.917969 C 127.933594 77.648438 127.992188 77.378906 128.042969 77.105469 C 128.054688 77.046875 128.066406 76.984375 128.074219 76.921875 C 128.074219 76.917969 128.082031 76.890625 128.085938 76.855469 C 128.09375 76.8125 128.105469 76.703125 128.109375 76.691406 C 128.113281 76.632812 128.121094 76.570312 128.125 76.507812 C 128.175781 75.957031 128.179688 75.402344 128.136719 74.851562 C 128.136719 74.816406 128.113281 74.394531 128.09375 74.390625 C 128.089844 74.390625 128.136719 74.695312 128.097656 74.4375 C 128.085938 74.375 128.078125 74.316406 128.066406 74.253906 C 128.019531 73.984375 127.960938 73.710938 127.890625 73.445312 C 127.820312 73.175781 127.738281 72.914062 127.640625 72.652344 C 127.617188 72.59375 127.597656 72.539062 127.574219 72.480469 C 127.574219 72.476562 127.535156 72.382812 127.515625 72.335938 C 127.5 72.304688 127.488281 72.269531 127.480469 72.261719 C 127.441406 72.179688 127.40625 72.097656 127.363281 72.011719 C 127.078125 71.425781 126.738281 70.863281 126.375 70.316406 C 126.195312 70.042969 126.007812 69.773438 125.820312 69.503906 C 125.726562 69.375 125.632812 69.242188 125.539062 69.109375 C 125.5 69.054688 125.261719 68.691406 125.433594 68.964844 C 125.171875 68.546875 124.753906 68.171875 124.386719 67.847656 C 124.296875 67.769531 124.164062 67.609375 124.046875 67.566406 C 124.070312 67.574219 124.261719 67.726562 124.070312 67.589844 C 124.023438 67.554688 123.972656 67.515625 123.921875 67.480469 C 123.675781 67.304688 123.421875 67.144531 123.164062 66.988281 C 122.59375 66.640625 122.429688 65.929688 122.734375 65.347656 C 123.035156 64.777344 123.839844 64.589844 124.375 64.914062 C 125.65625 65.695312 126.707031 66.648438 127.582031 67.863281 C 128.445312 69.050781 129.238281 70.265625 129.800781 71.625 C 130.28125 72.789062 130.519531 74.050781 130.558594 75.308594 C 130.59375 76.488281 130.433594 77.65625 130.097656 78.773438 C 133.589844 79.742188 136.269531 82.488281 137.691406 85.792969 C 137.957031 86.417969 137.859375 87.050781 137.261719 87.4375 Z M 137.261719 87.4375 " fill-opacity="1" fill-rule="nonzero"/><path fill="#5f755c" d="M 132.097656 178.730469 L 132.097656 174.914062 L 128.320312 174.914062 L 128.320312 178.730469 L 124.503906 178.730469 L 124.503906 182.511719 L 128.320312 182.511719 L 128.320312 186.328125 L 132.097656 186.328125 L 132.097656 182.511719 L 135.914062 182.511719 L 135.914062 178.730469 Z M 132.097656 178.730469 " fill-opacity="1" fill-rule="nonzero"/><path fill="#5f755c" d="M 181.109375 99.902344 L 181.109375 96.085938 L 177.328125 96.085938 L 177.328125 99.902344 L 173.511719 99.902344 L 173.511719 103.683594 L 177.328125 103.683594 L 177.328125 107.503906 L 181.109375 107.503906 L 181.109375 103.683594 L 184.921875 103.683594 L 184.921875 99.902344 Z M 181.109375 99.902344 " fill-opacity="1" fill-rule="nonzero"/><path fill="#5f755c" d="M 27.589844 74.289062 L 27.589844 70.472656 L 23.8125 70.472656 L 23.8125 74.289062 L 19.996094 74.289062 L 19.996094 78.066406 L 23.8125 78.066406 L 23.8125 81.886719 L 27.589844 81.886719 L 27.589844 78.066406 L 31.40625 78.066406 L 31.40625 74.289062 Z M 27.589844 74.289062 " fill-opacity="1" fill-rule="nonzero"/><path fill="#c9dd9c" d="M 165.921875 142.277344 L 166.902344 144.070312 L 168.695312 145.054688 C 169.238281 145.351562 169.238281 146.132812 168.695312 146.429688 L 166.902344 147.410156 L 165.921875 149.203125 C 165.621094 149.75 164.839844 149.75 164.542969 149.203125 L 163.5625 147.410156 L 161.769531 146.429688 C 161.226562 146.132812 161.226562 145.351562 161.769531 145.054688 L 163.5625 144.070312 L 164.542969 142.277344 C 164.84375 141.734375 165.621094 141.734375 165.921875 142.277344 Z M 165.921875 142.277344 " fill-opacity="1" fill-rule="nonzero"/><path fill="#c9dd9c" d="M 120.839844 40.253906 L 121.820312 42.046875 L 123.613281 43.027344 C 124.160156 43.324219 124.160156 44.105469 123.613281 44.40625 L 121.820312 45.386719 L 120.839844 47.179688 C 120.542969 47.722656 119.761719 47.722656 119.464844 47.179688 L 118.484375 45.386719 L 116.691406 44.40625 C 116.144531 44.105469 116.144531 43.324219 116.691406 43.027344 L 118.484375 42.046875 L 119.464844 40.253906 C 119.761719 39.710938 120.542969 39.710938 120.839844 40.253906 Z M 120.839844 40.253906 " fill-opacity="1" fill-rule="nonzero"/><path fill="#c9dd9c" d="M 39.894531 171.804688 L 41.0625 173.945312 L 43.203125 175.113281 C 43.851562 175.472656 43.851562 176.402344 43.203125 176.757812 L 41.0625 177.929688 L 39.894531 180.066406 C 39.539062 180.71875 38.605469 180.71875 38.25 180.066406 L 37.082031 177.929688 L 34.941406 176.757812 C 34.292969 176.402344 34.292969 175.46875 34.941406 175.113281 L 37.082031 173.945312 L 38.25 171.804688 C 38.605469 171.15625 39.539062 171.15625 39.894531 171.804688 Z M 39.894531 171.804688 " fill-opacity="1" fill-rule="nonzero"/><path fill="#c9dd9c" d="M 52.113281 148.179688 L 63.21875 148.136719 C 63.21875 148.136719 62.054688 142.257812 68.992188 142.34375 C 75.667969 142.425781 75.121094 148.078125 75.121094 148.078125 C 75.121094 148.078125 82.390625 147.273438 82.40625 154.074219 C 82.421875 160.164062 78.246094 160.164062 78.246094 160.164062 L 51.644531 160.164062 C 51.644531 160.164062 47.160156 160.207031 47.160156 154.316406 C 47.160156 148.523438 52.113281 148.179688 52.113281 148.179688 Z M 52.113281 148.179688 " fill-opacity="1" fill-rule="nonzero"/><path fill="#c9dd9c" d="M 151.660156 77.320312 L 162.765625 77.273438 C 162.765625 77.273438 161.601562 71.394531 168.539062 71.484375 C 175.214844 71.566406 174.667969 77.214844 174.667969 77.214844 C 174.667969 77.214844 181.9375 76.414062 181.953125 83.210938 C 181.96875 89.304688 177.792969 89.304688 177.792969 89.304688 L 151.191406 89.304688 C 151.191406 89.304688 146.707031 89.347656 146.707031 83.453125 C 146.707031 77.660156 151.660156 77.320312 151.660156 77.320312 Z M 151.660156 77.320312 " fill-opacity="1" fill-rule="nonzero"/><path fill="#c9dd9c" d="M 64.839844 27.863281 L 53.734375 27.816406 C 53.734375 27.816406 54.902344 21.941406 47.964844 22.027344 C 41.289062 22.109375 41.835938 27.757812 41.835938 27.757812 C 41.835938 27.757812 34.566406 26.957031 34.550781 33.753906 C 34.535156 39.847656 38.710938 39.847656 38.710938 39.847656 L 65.308594 39.847656 C 65.308594 39.847656 69.792969 39.890625 69.792969 34 C 69.792969 28.203125 64.839844 27.863281 64.839844 27.863281 Z M 64.839844 27.863281 " fill-opacity="1" fill-rule="nonzero"/><g clip-path="url(#71d46339a8)"><path fill="#e9622c" d="M 60.613281 16.839844 C 60.613281 17.027344 60.578125 17.203125 60.507812 17.375 C 60.4375 17.542969 60.339844 17.695312 60.207031 17.824219 C 60.078125 17.953125 59.925781 18.054688 59.757812 18.125 C 59.585938 18.195312 59.410156 18.230469 59.226562 18.230469 C 59.042969 18.230469 58.863281 18.195312 58.695312 18.125 C 58.523438 18.054688 58.375 17.953125 58.242188 17.824219 C 58.113281 17.695312 58.011719 17.542969 57.941406 17.375 C 57.871094 17.203125 57.835938 17.027344 57.835938 16.839844 C 57.835938 16.65625 57.871094 16.480469 57.941406 16.308594 C 58.011719 16.140625 58.113281 15.988281 58.242188 15.859375 C 58.375 15.730469 58.523438 15.628906 58.695312 15.558594 C 58.863281 15.488281 59.042969 15.453125 59.226562 15.453125 C 59.410156 15.453125 59.585938 15.488281 59.757812 15.558594 C 59.925781 15.628906 60.078125 15.730469 60.207031 15.859375 C 60.339844 15.988281 60.4375 16.140625 60.507812 16.308594 C 60.578125 16.480469 60.613281 16.65625 60.613281 16.839844 Z M 60.613281 16.839844 " fill-opacity="1" fill-rule="nonzero"/></g><path fill="#e9622c" d="M 145.820312 21.453125 C 145.820312 21.898438 145.734375 22.324219 145.5625 22.734375 C 145.394531 23.148438 145.152344 23.511719 144.835938 23.824219 C 144.519531 24.140625 144.160156 24.382812 143.746094 24.550781 C 143.335938 24.722656 142.910156 24.808594 142.464844 24.808594 C 142.019531 24.808594 141.589844 24.722656 141.179688 24.550781 C 140.769531 24.382812 140.40625 24.140625 140.089844 23.824219 C 139.777344 23.511719 139.535156 23.148438 139.363281 22.734375 C 139.195312 22.324219 139.109375 21.898438 139.109375 21.453125 C 139.109375 21.007812 139.195312 20.578125 139.363281 20.167969 C 139.535156 19.757812 139.777344 19.394531 140.089844 19.078125 C 140.40625 18.765625 140.769531 18.523438 141.179688 18.351562 C 141.589844 18.179688 142.019531 18.097656 142.464844 18.097656 C 142.910156 18.097656 143.335938 18.179688 143.746094 18.351562 C 144.160156 18.523438 144.519531 18.765625 144.835938 19.078125 C 145.152344 19.394531 145.394531 19.757812 145.5625 20.167969 C 145.734375 20.578125 145.820312 21.007812 145.820312 21.453125 Z M 145.820312 21.453125 " fill-opacity="1" fill-rule="nonzero"/><path fill="#e9622c" d="M 178.199219 53.183594 C 178.199219 53.453125 178.144531 53.714844 178.042969 53.964844 C 177.9375 54.214844 177.789062 54.4375 177.597656 54.628906 C 177.40625 54.820312 177.1875 54.96875 176.9375 55.074219 C 176.683594 55.175781 176.425781 55.226562 176.152344 55.226562 C 175.882812 55.226562 175.621094 55.175781 175.371094 55.074219 C 175.121094 54.96875 174.898438 54.820312 174.707031 54.628906 C 174.515625 54.4375 174.367188 54.214844 174.265625 53.964844 C 174.160156 53.714844 174.109375 53.453125 174.109375 53.183594 C 174.109375 52.910156 174.160156 52.652344 174.265625 52.402344 C 174.367188 52.148438 174.515625 51.929688 174.707031 51.738281 C 174.898438 51.546875 175.121094 51.398438 175.371094 51.292969 C 175.621094 51.191406 175.882812 51.136719 176.152344 51.136719 C 176.425781 51.136719 176.683594 51.191406 176.9375 51.292969 C 177.1875 51.398438 177.40625 51.546875 177.597656 51.738281 C 177.789062 51.929688 177.9375 52.148438 178.042969 52.402344 C 178.144531 52.652344 178.199219 52.910156 178.199219 53.183594 Z M 178.199219 53.183594 " fill-opacity="1" fill-rule="nonzero"/><path fill="#e9622c" d="M 196.085938 74.132812 C 196.085938 74.402344 196.03125 74.664062 195.929688 74.914062 C 195.824219 75.164062 195.675781 75.386719 195.484375 75.578125 C 195.292969 75.769531 195.074219 75.917969 194.824219 76.023438 C 194.570312 76.125 194.3125 76.175781 194.039062 76.175781 C 193.769531 76.175781 193.507812 76.125 193.257812 76.023438 C 193.007812 75.917969 192.785156 75.769531 192.59375 75.578125 C 192.402344 75.386719 192.253906 75.164062 192.152344 74.914062 C 192.046875 74.664062 191.996094 74.402344 191.996094 74.132812 C 191.996094 73.863281 192.046875 73.601562 192.152344 73.351562 C 192.253906 73.101562 192.402344 72.878906 192.59375 72.6875 C 192.785156 72.496094 193.007812 72.347656 193.257812 72.242188 C 193.507812 72.140625 193.769531 72.089844 194.039062 72.089844 C 194.3125 72.089844 194.570312 72.140625 194.824219 72.242188 C 195.074219 72.347656 195.292969 72.496094 195.484375 72.6875 C 195.675781 72.878906 195.824219 73.101562 195.929688 73.351562 C 196.03125 73.601562 196.085938 73.863281 196.085938 74.132812 Z M 196.085938 74.132812 " fill-opacity="1" fill-rule="nonzero"/><g clip-path="url(#0de874859a)"><path fill="#e9622c" d="M 205.386719 111.203125 C 205.386719 111.496094 205.359375 111.785156 205.300781 112.074219 C 205.242188 112.359375 205.160156 112.640625 205.046875 112.910156 C 204.933594 113.183594 204.796875 113.441406 204.632812 113.683594 C 204.472656 113.925781 204.285156 114.152344 204.078125 114.359375 C 203.871094 114.566406 203.644531 114.753906 203.402344 114.914062 C 203.160156 115.078125 202.902344 115.214844 202.632812 115.328125 C 202.359375 115.441406 202.082031 115.523438 201.792969 115.582031 C 201.507812 115.640625 201.214844 115.667969 200.921875 115.667969 C 200.628906 115.667969 200.339844 115.640625 200.050781 115.582031 C 199.765625 115.523438 199.484375 115.441406 199.214844 115.328125 C 198.945312 115.214844 198.6875 115.078125 198.441406 114.914062 C 198.199219 114.753906 197.972656 114.566406 197.765625 114.359375 C 197.558594 114.152344 197.375 113.925781 197.210938 113.683594 C 197.046875 113.441406 196.910156 113.183594 196.796875 112.910156 C 196.6875 112.640625 196.601562 112.359375 196.542969 112.074219 C 196.488281 111.785156 196.457031 111.496094 196.457031 111.203125 C 196.457031 110.910156 196.488281 110.617188 196.542969 110.332031 C 196.601562 110.042969 196.6875 109.765625 196.796875 109.492188 C 196.910156 109.222656 197.046875 108.964844 197.210938 108.722656 C 197.375 108.476562 197.558594 108.25 197.765625 108.042969 C 197.972656 107.835938 198.199219 107.652344 198.441406 107.488281 C 198.6875 107.328125 198.945312 107.1875 199.214844 107.078125 C 199.484375 106.964844 199.765625 106.878906 200.050781 106.824219 C 200.339844 106.765625 200.628906 106.738281 200.921875 106.738281 C 201.214844 106.738281 201.507812 106.765625 201.792969 106.824219 C 202.082031 106.878906 202.359375 106.964844 202.632812 107.078125 C 202.902344 107.1875 203.160156 107.328125 203.402344 107.488281 C 203.644531 107.652344 203.871094 107.835938 204.078125 108.042969 C 204.285156 108.25 204.472656 108.476562 204.632812 108.722656 C 204.796875 108.964844 204.933594 109.222656 205.046875 109.492188 C 205.160156 109.765625 205.242188 110.042969 205.300781 110.332031 C 205.359375 110.617188 205.386719 110.910156 205.386719 111.203125 Z M 205.386719 111.203125 " fill-opacity="1" fill-rule="nonzero"/></g><path fill="#e9622c" d="M 23.054688 151.257812 C 23.054688 151.664062 22.976562 152.054688 22.824219 152.429688 C 22.667969 152.804688 22.445312 153.136719 22.160156 153.421875 C 21.871094 153.710938 21.539062 153.933594 21.164062 154.085938 C 20.789062 154.242188 20.402344 154.320312 19.996094 154.320312 C 19.589844 154.320312 19.199219 154.242188 18.824219 154.085938 C 18.449219 153.933594 18.117188 153.710938 17.828125 153.421875 C 17.542969 153.136719 17.320312 152.804688 17.167969 152.429688 C 17.011719 152.054688 16.933594 151.664062 16.933594 151.257812 C 16.933594 150.851562 17.011719 150.460938 17.167969 150.085938 C 17.320312 149.710938 17.542969 149.378906 17.828125 149.09375 C 18.117188 148.804688 18.449219 148.585938 18.824219 148.429688 C 19.199219 148.273438 19.589844 148.195312 19.996094 148.195312 C 20.402344 148.195312 20.789062 148.273438 21.164062 148.429688 C 21.539062 148.585938 21.871094 148.804688 22.160156 149.09375 C 22.445312 149.378906 22.667969 149.710938 22.824219 150.085938 C 22.976562 150.460938 23.054688 150.851562 23.054688 151.257812 Z M 23.054688 151.257812 " fill-opacity="1" fill-rule="nonzero"/><g clip-path="url(#ad713bb08d)"><path fill="#e9622c" d="M 9.613281 79.632812 C 9.613281 79.980469 9.546875 80.3125 9.414062 80.632812 C 9.28125 80.953125 9.09375 81.234375 8.847656 81.480469 C 8.601562 81.726562 8.320312 81.914062 8 82.046875 C 7.679688 82.179688 7.347656 82.246094 7 82.246094 C 6.652344 82.246094 6.320312 82.179688 6 82.046875 C 5.679688 81.914062 5.398438 81.726562 5.152344 81.480469 C 4.90625 81.234375 4.71875 80.953125 4.585938 80.632812 C 4.453125 80.3125 4.386719 79.980469 4.386719 79.632812 C 4.386719 79.285156 4.453125 78.953125 4.585938 78.632812 C 4.71875 78.3125 4.90625 78.027344 5.152344 77.785156 C 5.398438 77.539062 5.679688 77.351562 6 77.21875 C 6.320312 77.085938 6.652344 77.019531 7 77.019531 C 7.347656 77.019531 7.679688 77.085938 8 77.21875 C 8.320312 77.351562 8.601562 77.539062 8.847656 77.785156 C 9.09375 78.027344 9.28125 78.3125 9.414062 78.632812 C 9.546875 78.953125 9.613281 79.285156 9.613281 79.632812 Z M 9.613281 79.632812 " fill-opacity="1" fill-rule="nonzero"/></g><path fill="#e9622c" d="M 35.898438 52.429688 C 35.898438 52.652344 35.855469 52.867188 35.773438 53.074219 C 35.6875 53.28125 35.566406 53.464844 35.40625 53.621094 C 35.25 53.777344 35.066406 53.902344 34.859375 53.984375 C 34.65625 54.070312 34.441406 54.113281 34.21875 54.113281 C 33.992188 54.113281 33.78125 54.070312 33.574219 53.984375 C 33.367188 53.902344 33.183594 53.777344 33.027344 53.621094 C 32.871094 53.464844 32.75 53.28125 32.664062 53.074219 C 32.578125 52.867188 32.535156 52.652344 32.535156 52.429688 C 32.535156 52.207031 32.578125 51.992188 32.664062 51.785156 C 32.75 51.582031 32.871094 51.398438 33.027344 51.242188 C 33.183594 51.082031 33.367188 50.960938 33.574219 50.875 C 33.78125 50.789062 33.992188 50.75 34.21875 50.75 C 34.441406 50.75 34.65625 50.789062 34.859375 50.875 C 35.066406 50.960938 35.25 51.082031 35.40625 51.242188 C 35.566406 51.398438 35.6875 51.582031 35.773438 51.785156 C 35.855469 51.992188 35.898438 52.207031 35.898438 52.429688 Z M 35.898438 52.429688 " fill-opacity="1" fill-rule="nonzero"/><path fill="#e9622c" d="M 153.078125 180.621094 C 153.078125 180.847656 153.035156 181.066406 152.945312 181.273438 C 152.859375 181.480469 152.738281 181.664062 152.578125 181.824219 C 152.417969 181.984375 152.234375 182.105469 152.027344 182.191406 C 151.820312 182.277344 151.601562 182.320312 151.378906 182.320312 C 151.152344 182.320312 150.9375 182.277344 150.726562 182.191406 C 150.519531 182.105469 150.335938 181.984375 150.175781 181.824219 C 150.019531 181.664062 149.894531 181.480469 149.808594 181.273438 C 149.722656 181.066406 149.679688 180.847656 149.679688 180.621094 C 149.679688 180.398438 149.722656 180.179688 149.808594 179.972656 C 149.894531 179.765625 150.019531 179.582031 150.175781 179.421875 C 150.335938 179.261719 150.519531 179.140625 150.726562 179.050781 C 150.9375 178.964844 151.152344 178.921875 151.378906 178.921875 C 151.601562 178.921875 151.820312 178.964844 152.027344 179.050781 C 152.234375 179.140625 152.417969 179.261719 152.578125 179.421875 C 152.738281 179.582031 152.859375 179.765625 152.945312 179.972656 C 153.035156 180.179688 153.078125 180.398438 153.078125 180.621094 Z M 153.078125 180.621094 " fill-opacity="1" fill-rule="nonzero"/><path fill="#e9622c" d="M 176.152344 30.9375 C 176.152344 31.210938 176.101562 31.46875 175.996094 31.722656 C 175.894531 31.972656 175.746094 32.191406 175.554688 32.382812 C 175.363281 32.578125 175.140625 32.722656 174.890625 32.828125 C 174.640625 32.929688 174.378906 32.984375 174.109375 32.984375 C 173.839844 32.984375 173.578125 32.929688 173.328125 32.828125 C 173.078125 32.722656 172.855469 32.578125 172.664062 32.382812 C 172.472656 32.191406 172.324219 31.972656 172.21875 31.722656 C 172.117188 31.46875 172.066406 31.210938 172.066406 30.9375 C 172.066406 30.667969 172.117188 30.40625 172.21875 30.15625 C 172.324219 29.90625 172.472656 29.683594 172.664062 29.492188 C 172.855469 29.300781 173.078125 29.152344 173.328125 29.050781 C 173.578125 28.945312 173.839844 28.894531 174.109375 28.894531 C 174.378906 28.894531 174.640625 28.945312 174.890625 29.050781 C 175.140625 29.152344 175.363281 29.300781 175.554688 29.492188 C 175.746094 29.683594 175.894531 29.90625 175.996094 30.15625 C 176.101562 30.40625 176.152344 30.667969 176.152344 30.9375 Z M 176.152344 30.9375 " fill-opacity="1" fill-rule="nonzero"/></svg>