<svg xmlns="http://www.w3.org/2000/svg" xmlns:xlink="http://www.w3.org/1999/xlink" width="280" zoomAndPan="magnify" viewBox="0 0 210 209.999996" height="280" preserveAspectRatio="xMidYMid meet" version="1.0"><defs><clipPath id="7469fa481d"><path d="M 139 6.933594 L 147 6.933594 L 147 25 L 139 25 Z M 139 6.933594 " clip-rule="nonzero"/></clipPath><clipPath id="28d933840e"><path d="M 123 131 L 185 131 L 185 203.433594 L 123 203.433594 Z M 123 131 " clip-rule="nonzero"/></clipPath><clipPath id="083c9d049c"><path d="M 37 131 L 100 131 L 100 203.433594 L 37 203.433594 Z M 37 131 " clip-rule="nonzero"/></clipPath><clipPath id="7d0527ebbd"><path d="M 193 124 L 203.445312 124 L 203.445312 135 L 193 135 Z M 193 124 " clip-rule="nonzero"/></clipPath><clipPath id="3d34eaa5d3"><path d="M 6.195312 142 L 17 142 L 17 153 L 6.195312 153 Z M 6.195312 142 " clip-rule="nonzero"/></clipPath></defs><path fill="#97c347" d="M 124.648438 32.359375 C 124.195312 29.023438 122.28125 26.707031 120.714844 24.332031 C 120.886719 24.59375 118.238281 29.714844 118.578125 32.730469 C 118.734375 34.15625 120.359375 40.8125 121.347656 40.835938 C 122.710938 40.863281 124.894531 34.171875 124.648438 32.359375 Z M 124.648438 32.359375 " fill-opacity="1" fill-rule="nonzero"/><path fill="#97c347" d="M 127.078125 40.875 C 129.066406 38.71875 129.128906 36.015625 129.015625 33.398438 C 127.070312 34.402344 125.203125 35.667969 123.867188 37.410156 C 123.0625 38.453125 120.789062 43.933594 121.238281 44.449219 C 121.660156 44.929688 126.335938 41.683594 127.078125 40.875 Z M 127.078125 40.875 " fill-opacity="1" fill-rule="nonzero"/><path fill="#97c347" d="M 126.023438 47.902344 C 126.84375 47.117188 127.378906 46.078125 127.894531 45.058594 C 128.421875 44.015625 128.949219 42.972656 129.476562 41.929688 C 128.082031 42.582031 126.710938 43.289062 125.363281 44.042969 C 124.289062 44.648438 123.21875 45.292969 122.375 46.1875 C 121.761719 46.839844 120.332031 49.613281 120.613281 50.070312 C 120.929688 50.589844 124.863281 49.015625 126.023438 47.902344 Z M 126.023438 47.902344 " fill-opacity="1" fill-rule="nonzero"/><path fill="#97c347" d="M 123.765625 54.015625 C 126.261719 53.128906 127.949219 50.839844 129.476562 48.675781 C 128.003906 49.105469 126.550781 49.609375 125.128906 50.179688 C 124.558594 50.410156 123.988281 50.652344 123.46875 50.980469 C 122.796875 51.40625 122.222656 51.964844 121.652344 52.519531 C 120.953125 53.199219 120.09375 53.867188 119.519531 54.648438 C 120.042969 55.042969 122.921875 54.3125 123.765625 54.015625 Z M 123.765625 54.015625 " fill-opacity="1" fill-rule="nonzero"/><path fill="#97c347" d="M 120.164062 39.886719 C 118.765625 36.925781 115.390625 35.480469 113.351562 32.921875 C 113.0625 32.9375 113.046875 33.363281 113.121094 33.644531 C 113.378906 34.605469 113.636719 35.566406 113.894531 36.527344 C 114.21875 37.730469 114.550781 38.96875 115.285156 39.976562 C 115.765625 40.640625 116.394531 41.175781 117.015625 41.699219 C 117.632812 42.222656 120.476562 45.066406 120.921875 44.46875 C 121.207031 44.085938 120.878906 42.554688 120.8125 42.113281 C 120.6875 41.3125 120.402344 40.644531 120.164062 39.886719 Z M 120.164062 39.886719 " fill-opacity="1" fill-rule="nonzero"/><path fill="#97c347" d="M 114.023438 41.457031 C 114.21875 43.542969 114.515625 45.679688 115.574219 47.484375 C 116.316406 48.75 119.800781 50.710938 120.253906 50.214844 C 120.679688 49.746094 119.667969 46.246094 119.164062 45.410156 C 118.550781 44.390625 116.894531 42.457031 114.023438 41.457031 Z M 114.023438 41.457031 " fill-opacity="1" fill-rule="nonzero"/><path fill="#97c347" d="M 118.277344 50.757812 C 117 49.03125 115.027344 47.980469 113.113281 47.007812 C 113.238281 48.9375 114.414062 51.640625 115.652344 52.992188 C 116.558594 53.980469 119.410156 54.925781 119.535156 54.746094 C 119.722656 54.488281 119.515625 52.210938 118.277344 50.757812 Z M 118.277344 50.757812 " fill-opacity="1" fill-rule="nonzero"/><path fill="#5f755c" d="M 116.539062 64.796875 L 116.042969 64.605469 C 116.074219 64.53125 118.945312 57.152344 119.746094 52.878906 C 121.011719 46.105469 121.320312 40.308594 121.320312 40.246094 L 121.398438 40.25 L 121.480469 40.25 C 121.480469 40.308594 121.539062 46.15625 120.265625 52.976562 C 119.460938 57.300781 116.566406 64.726562 116.539062 64.796875 Z M 116.539062 64.796875 " fill-opacity="1" fill-rule="nonzero"/><path fill="#65a830" d="M 99.082031 29.609375 C 99.082031 29.609375 103.601562 25.914062 102.960938 21.757812 C 102.320312 17.601562 97.609375 13.269531 97.609375 13.269531 C 97.609375 13.269531 93.257812 18.410156 94.074219 22.707031 C 94.894531 27.003906 99.082031 29.609375 99.082031 29.609375 Z M 99.082031 29.609375 " fill-opacity="1" fill-rule="nonzero"/><path fill="#65a830" d="M 100.109375 39.824219 C 100.109375 39.824219 105.792969 41.121094 108.660156 38.054688 C 111.527344 34.992188 112.027344 28.597656 112.027344 28.597656 C 112.027344 28.597656 105.3125 28.320312 102.441406 31.617188 C 99.574219 34.910156 100.109375 39.824219 100.109375 39.824219 Z M 100.109375 39.824219 " fill-opacity="1" fill-rule="nonzero"/><path fill="#65a830" d="M 101.066406 54.152344 C 101.066406 54.152344 106.75 55.449219 109.617188 52.382812 C 112.484375 49.316406 112.984375 42.921875 112.984375 42.921875 C 112.984375 42.921875 106.269531 42.644531 103.402344 45.941406 C 100.53125 49.238281 101.066406 54.152344 101.066406 54.152344 Z M 101.066406 54.152344 " fill-opacity="1" fill-rule="nonzero"/><path fill="#65a830" d="M 99.953125 40.226562 C 99.953125 40.226562 94.808594 42.6875 91.417969 40.378906 C 88.027344 38.070312 86.183594 32.074219 86.183594 32.074219 C 86.183594 32.074219 92.53125 30.367188 95.972656 32.894531 C 99.414062 35.421875 99.953125 40.226562 99.953125 40.226562 Z M 99.953125 40.226562 " fill-opacity="1" fill-rule="nonzero"/><path fill="#65a830" d="M 101.007812 53.386719 C 101.007812 53.386719 95.859375 55.847656 92.46875 53.539062 C 89.082031 51.230469 87.238281 45.238281 87.238281 45.238281 C 87.238281 45.238281 93.585938 43.527344 97.027344 46.054688 C 100.464844 48.582031 101.007812 53.386719 101.007812 53.386719 Z M 101.007812 53.386719 " fill-opacity="1" fill-rule="nonzero"/><path fill="#5f755c" d="M 99.148438 29.605469 C 99.476562 32.363281 99.769531 35.125 100.085938 37.882812 L 100.953125 46.167969 C 101.101562 47.546875 101.253906 48.929688 101.414062 50.308594 C 101.570312 51.6875 101.683594 53.070312 101.757812 54.457031 L 101.847656 56.539062 C 101.863281 57.234375 101.890625 57.929688 101.894531 58.625 C 101.917969 60.015625 101.910156 61.40625 101.832031 62.808594 L 101.699219 62.816406 C 101.398438 61.449219 101.171875 60.074219 100.964844 58.699219 C 100.855469 58.011719 100.773438 57.324219 100.679688 56.632812 L 100.433594 54.566406 C 100.285156 53.1875 100.175781 51.800781 100.105469 50.414062 C 100.039062 49.027344 99.96875 47.640625 99.894531 46.253906 L 99.421875 37.9375 C 99.289062 35.164062 99.132812 32.390625 99.015625 29.617188 Z M 99.148438 29.605469 " fill-opacity="1" fill-rule="nonzero"/><path fill="#97c347" d="M 72.148438 12.484375 C 72.453125 9.203125 73.613281 9.003906 74.261719 8.886719 C 74.738281 8.796875 76.742188 9.121094 76.515625 13.691406 C 76.453125 14.964844 76.144531 20.65625 74.339844 20.59375 C 73.160156 20.554688 71.8125 16.039062 72.148438 12.484375 Z M 72.148438 12.484375 " fill-opacity="1" fill-rule="nonzero"/><path fill="#97c347" d="M 72.003906 13.457031 C 72.3125 10.175781 73.46875 9.976562 74.121094 9.859375 C 74.597656 9.769531 76.601562 10.09375 76.375 14.660156 C 76.3125 15.9375 76.003906 21.628906 74.199219 21.566406 C 73.015625 21.527344 71.671875 17.007812 72.003906 13.457031 Z M 72.003906 13.457031 " fill-opacity="1" fill-rule="nonzero"/><path fill="#97c347" d="M 77.738281 18.117188 C 79.734375 15.476562 80.824219 15.921875 81.441406 16.164062 C 81.898438 16.34375 83.4375 17.683594 80.832031 21.46875 C 80.105469 22.523438 75.441406 28.167969 74.632812 27.730469 C 74.367188 27.585938 75.578125 20.972656 77.738281 18.117188 Z M 77.738281 18.117188 " fill-opacity="1" fill-rule="nonzero"/><path fill="#97c347" d="M 69.867188 19.390625 C 67.453125 17.15625 66.460938 17.785156 65.898438 18.132812 C 65.484375 18.386719 64.210938 19.96875 67.421875 23.21875 C 68.316406 24.125 73.867188 28.828125 74.582031 28.257812 C 74.820312 28.066406 72.484375 21.808594 69.867188 19.390625 Z M 69.867188 19.390625 " fill-opacity="1" fill-rule="nonzero"/><path fill="#97c347" d="M 70.058594 29.910156 C 67.332031 28.070312 66.449219 28.839844 65.945312 29.269531 C 65.574219 29.582031 64.554688 31.34375 68.21875 34.066406 C 69.238281 34.828125 75.4375 38.632812 76.054688 37.960938 C 76.261719 37.734375 73.007812 31.90625 70.058594 29.910156 Z M 70.058594 29.910156 " fill-opacity="1" fill-rule="nonzero"/><path fill="#97c347" d="M 72.941406 41.339844 C 70.214844 39.496094 69.332031 40.269531 68.828125 40.695312 C 68.457031 41.011719 67.4375 42.769531 71.101562 45.496094 C 72.121094 46.253906 78.320312 50.0625 78.9375 49.390625 C 79.144531 49.164062 75.886719 43.332031 72.941406 41.339844 Z M 72.941406 41.339844 " fill-opacity="1" fill-rule="nonzero"/><path fill="#97c347" d="M 76.542969 53.175781 C 74.054688 51.726562 73.328125 52.453125 72.914062 52.855469 C 72.605469 53.152344 71.816406 54.753906 75.179688 56.917969 C 76.117188 57.519531 81.757812 60.484375 82.257812 59.863281 C 82.425781 59.652344 79.238281 54.746094 76.542969 53.175781 Z M 76.542969 53.175781 " fill-opacity="1" fill-rule="nonzero"/><path fill="#97c347" d="M 79.308594 27.835938 C 81.398438 25.484375 82.445312 26.019531 83.039062 26.3125 C 83.476562 26.527344 84.921875 27.96875 82.183594 31.363281 C 81.417969 32.3125 76.570312 37.296875 75.796875 36.800781 C 75.539062 36.632812 77.050781 30.382812 79.308594 27.835938 Z M 79.308594 27.835938 " fill-opacity="1" fill-rule="nonzero"/><path fill="#97c347" d="M 81.441406 38.722656 C 83.320312 36.199219 84.410156 36.640625 85.027344 36.882812 C 85.480469 37.058594 87.046875 38.367188 84.609375 41.988281 C 83.929688 42.996094 79.527344 48.386719 78.71875 47.957031 C 78.445312 47.8125 79.410156 41.457031 81.441406 38.722656 Z M 81.441406 38.722656 " fill-opacity="1" fill-rule="nonzero"/><path fill="#97c347" d="M 83.792969 49.695312 C 85.402344 46.992188 86.535156 47.320312 87.171875 47.496094 C 87.644531 47.625 89.335938 48.769531 87.28125 52.621094 C 86.707031 53.695312 82.875 59.507812 82.023438 59.164062 C 81.738281 59.046875 82.050781 52.625 83.792969 49.695312 Z M 83.792969 49.695312 " fill-opacity="1" fill-rule="nonzero"/><g clip-path="url(#7469fa481d)"><path fill="#65a830" d="M 144.570312 6.933594 C 144.570312 6.933594 147.699219 12.59375 146.332031 16.65625 C 144.964844 20.714844 141.863281 24.003906 141.863281 24.003906 C 141.863281 24.003906 139.101562 18.332031 140.089844 14.496094 C 141.078125 10.65625 144.570312 6.933594 144.570312 6.933594 Z M 144.570312 6.933594 " fill-opacity="1" fill-rule="nonzero"/></g><path fill="#65a830" d="M 146.542969 23.660156 C 149.550781 20.222656 156.0625 21.234375 156.0625 21.234375 C 156.0625 21.234375 155.675781 25.691406 152.175781 28.398438 C 148.675781 31.101562 143.828125 32.40625 143.828125 32.40625 C 143.828125 32.40625 144.535156 25.957031 146.542969 23.660156 Z M 146.542969 23.660156 " fill-opacity="1" fill-rule="nonzero"/><path fill="#65a830" d="M 141.96875 38.949219 C 144.230469 36.128906 149.882812 34.488281 149.882812 34.488281 C 149.882812 34.488281 149.644531 40.402344 146.597656 43.277344 C 143.550781 46.148438 139.378906 47.703125 139.378906 47.703125 C 139.378906 47.703125 139.757812 41.714844 141.96875 38.949219 Z M 141.96875 38.949219 " fill-opacity="1" fill-rule="nonzero"/><path fill="#65a830" d="M 141.933594 50.355469 C 144.453125 48.144531 151.117188 47.417969 151.117188 47.417969 C 151.117188 47.417969 149.589844 54.308594 145.316406 56.605469 C 141.042969 58.902344 136.453125 59.910156 136.453125 59.910156 C 136.453125 59.910156 138.984375 52.945312 141.933594 50.355469 Z M 141.933594 50.355469 " fill-opacity="1" fill-rule="nonzero"/><path fill="#65a830" d="M 134.871094 58.378906 C 134.871094 58.378906 131.023438 57.488281 129.28125 54.238281 C 127.542969 50.984375 127.734375 45.054688 127.734375 45.054688 C 127.734375 45.054688 131.921875 45.871094 134.203125 50.558594 C 136.484375 55.246094 134.871094 58.378906 134.871094 58.378906 Z M 134.871094 58.378906 " fill-opacity="1" fill-rule="nonzero"/><path fill="#65a830" d="M 136.183594 34.539062 C 137.871094 37.136719 137.761719 43.621094 137.761719 43.621094 C 137.761719 43.621094 134.125 43.160156 132.164062 39.527344 C 130.203125 35.894531 130.816406 29.96875 130.816406 29.96875 C 130.816406 29.96875 134.878906 32.53125 136.183594 34.539062 Z M 136.183594 34.539062 " fill-opacity="1" fill-rule="nonzero"/><path fill="#65a830" d="M 133.390625 13.742188 C 133.390625 13.742188 136.691406 15.300781 138.402344 18.867188 C 140.109375 22.433594 139.902344 29.273438 139.902344 29.273438 C 139.902344 29.273438 136.300781 28.664062 134.628906 25.589844 C 131.714844 20.234375 133.390625 13.742188 133.390625 13.742188 Z M 133.390625 13.742188 " fill-opacity="1" fill-rule="nonzero"/><path fill="#5f755c" d="M 140.140625 56.960938 L 136.25 59.597656 C 137.019531 56.476562 137.796875 52.941406 138.476562 49.144531 C 138.484375 49.085938 138.496094 49.027344 138.507812 48.96875 L 142.292969 43.71875 L 138.792969 47.347656 C 139.359375 44.0625 139.898438 40.660156 140.390625 37.402344 L 146.691406 28.945312 L 140.625 35.828125 C 141.964844 26.753906 142.875 17.910156 142.875 17.910156 C 142.875 17.910156 141.238281 23.335938 140.410156 29.332031 L 137.957031 25.917969 L 140.230469 30.621094 C 139.671875 34.597656 138.996094 39.1875 138.25 43.730469 L 135.796875 40.320312 L 138.042969 44.988281 C 137.820312 46.324219 137.59375 47.648438 137.363281 48.949219 C 136.769531 52.261719 136.101562 55.375 135.429688 58.183594 L 132.632812 54.246094 L 135.15625 59.3125 C 133.195312 67.273438 131.289062 72.542969 131.265625 72.613281 L 132.328125 73.003906 C 132.351562 72.933594 134.070312 68.1875 135.929688 60.894531 Z M 140.140625 56.960938 " fill-opacity="1" fill-rule="nonzero"/><g clip-path="url(#28d933840e)"><path fill="#65a830" d="M 123.320312 203.441406 C 123.320312 203.441406 126.652344 182.976562 130.574219 176.679688 C 134.496094 170.382812 139.984375 166.25 143.710938 164.871094 C 147.433594 163.496094 152.988281 160.414062 154.753906 158.839844 C 156.519531 157.265625 165.074219 147.066406 168.410156 149.789062 C 172.070312 152.773438 166.582031 158.25 166.582031 158.25 L 155.144531 169.003906 C 155.144531 169.003906 163.117188 164.414062 164.949219 163.101562 C 166.777344 161.789062 173.835938 155.429688 175.53125 150.640625 C 177.230469 145.851562 178.671875 137.324219 179.324219 135.160156 C 179.976562 132.996094 181.675781 131.882812 182.460938 131.816406 C 183.246094 131.75 184.160156 131.75 184.683594 132.929688 C 185.207031 134.113281 184.945312 138.835938 184.683594 140.539062 C 184.421875 142.246094 183.375 152.476562 181.285156 158.378906 C 179.195312 164.28125 176.1875 171.363281 173.050781 174.644531 C 170.605469 177.203125 164.683594 183.171875 158.933594 185.402344 C 155.71875 186.652344 151.878906 188.289062 148.609375 192.878906 C 145.34375 197.472656 144.167969 203.4375 144.167969 203.4375 L 123.320312 203.4375 Z M 123.320312 203.441406 " fill-opacity="1" fill-rule="nonzero"/></g><path fill="#65a830" d="M 177.070312 136.882812 C 177.363281 136.574219 177.871094 136.847656 177.78125 137.261719 C 177.058594 140.523438 175.226562 148.570312 174.292969 150.441406 C 173.558594 151.914062 171.914062 154.148438 170.777344 155.625 C 170.5 155.980469 169.933594 155.707031 170.042969 155.269531 C 171.0625 151.160156 173.523438 141.546875 174.75 139.753906 C 175.5625 138.5625 176.425781 137.570312 177.070312 136.882812 Z M 177.070312 136.882812 " fill-opacity="1" fill-rule="nonzero"/><g clip-path="url(#083c9d049c)"><path fill="#65a830" d="M 99.535156 203.441406 C 99.535156 203.441406 96.203125 182.976562 92.28125 176.679688 C 88.359375 170.382812 82.871094 166.25 79.144531 164.871094 C 75.421875 163.496094 69.867188 160.414062 68.101562 158.839844 C 66.339844 157.265625 57.78125 147.066406 54.445312 149.789062 C 50.785156 152.773438 56.273438 158.25 56.273438 158.25 L 67.710938 169.003906 C 67.710938 169.003906 59.738281 164.414062 57.90625 163.101562 C 56.078125 161.789062 49.019531 155.429688 47.320312 150.640625 C 45.621094 145.851562 44.183594 137.324219 43.53125 135.160156 C 42.878906 132.996094 41.175781 131.882812 40.394531 131.816406 C 39.609375 131.75 38.691406 131.75 38.171875 132.929688 C 37.648438 134.113281 37.910156 138.835938 38.171875 140.539062 C 38.433594 142.246094 39.476562 152.476562 41.566406 158.378906 C 43.660156 164.28125 46.664062 171.363281 49.804688 174.644531 C 52.25 177.203125 58.167969 183.171875 63.917969 185.402344 C 67.136719 186.652344 70.976562 188.289062 74.242188 192.878906 C 77.511719 197.472656 78.6875 203.4375 78.6875 203.4375 L 99.535156 203.4375 Z M 99.535156 203.441406 " fill-opacity="1" fill-rule="nonzero"/></g><path fill="#65a830" d="M 45.785156 136.882812 C 45.492188 136.574219 44.984375 136.847656 45.074219 137.261719 C 45.796875 140.523438 47.628906 148.570312 48.5625 150.441406 C 49.296875 151.914062 50.941406 154.148438 52.078125 155.625 C 52.355469 155.980469 52.921875 155.707031 52.8125 155.269531 C 51.792969 151.160156 49.332031 141.546875 48.105469 139.753906 C 47.292969 138.5625 46.429688 137.570312 45.785156 136.882812 Z M 45.785156 136.882812 " fill-opacity="1" fill-rule="nonzero"/><path fill="#5f755c" d="M 175.699219 189.78125 L 175.699219 185.589844 L 171.515625 185.589844 L 171.515625 189.78125 L 167.289062 189.78125 L 167.289062 193.929688 L 171.515625 193.929688 L 171.515625 198.121094 L 175.699219 198.121094 L 175.699219 193.929688 L 179.925781 193.929688 L 179.925781 189.78125 Z M 175.699219 189.78125 " fill-opacity="1" fill-rule="nonzero"/><path fill="#5f755c" d="M 187.078125 107.839844 L 187.078125 103.597656 L 182.894531 103.597656 L 182.894531 107.839844 L 178.667969 107.839844 L 178.667969 112.039062 L 182.894531 112.039062 L 182.894531 116.28125 L 187.078125 116.28125 L 187.078125 112.039062 L 191.304688 112.039062 L 191.304688 107.839844 Z M 187.078125 107.839844 " fill-opacity="1" fill-rule="nonzero"/><path fill="#5f755c" d="M 37.402344 80.226562 L 37.402344 75.984375 L 33.21875 75.984375 L 33.21875 80.226562 L 28.992188 80.226562 L 28.992188 84.425781 L 33.21875 84.425781 L 33.21875 88.667969 L 37.402344 88.667969 L 37.402344 84.425781 L 41.628906 84.425781 L 41.628906 80.226562 Z M 37.402344 80.226562 " fill-opacity="1" fill-rule="nonzero"/><path fill="#97c347" d="M 194.949219 155.53125 L 196.035156 157.523438 L 198.019531 158.613281 C 198.621094 158.941406 198.621094 159.8125 198.019531 160.144531 L 196.035156 161.230469 L 194.949219 163.222656 C 194.621094 163.824219 193.757812 163.824219 193.425781 163.222656 L 192.34375 161.230469 L 190.359375 160.144531 C 189.757812 159.8125 189.757812 158.941406 190.359375 158.613281 L 192.34375 157.523438 L 193.425781 155.53125 C 193.757812 154.925781 194.621094 154.925781 194.949219 155.53125 Z M 194.949219 155.53125 " fill-opacity="1" fill-rule="nonzero"/><path fill="#97c347" d="M 165.984375 67.910156 L 167.070312 69.902344 L 169.054688 70.992188 C 169.65625 71.320312 169.65625 72.191406 169.054688 72.519531 L 167.070312 73.609375 L 165.984375 75.601562 C 165.65625 76.203125 164.789062 76.203125 164.460938 75.601562 L 163.375 73.609375 L 161.390625 72.519531 C 160.789062 72.191406 160.789062 71.320312 161.390625 70.992188 L 163.375 69.902344 L 164.460938 67.910156 C 164.789062 67.304688 165.65625 67.304688 165.984375 67.910156 Z M 165.984375 67.910156 " fill-opacity="1" fill-rule="nonzero"/><path fill="#97c347" d="M 38.78125 177.113281 L 40.074219 179.492188 L 42.445312 180.792969 C 43.164062 181.1875 43.164062 182.222656 42.445312 182.617188 L 40.074219 183.917969 L 38.78125 186.296875 C 38.386719 187.019531 37.355469 187.019531 36.960938 186.296875 L 35.664062 183.917969 L 33.292969 182.617188 C 32.574219 182.226562 32.574219 181.1875 33.292969 180.792969 L 35.664062 179.492188 L 36.960938 177.113281 C 37.355469 176.390625 38.386719 176.390625 38.78125 177.113281 Z M 38.78125 177.113281 " fill-opacity="1" fill-rule="nonzero"/><path fill="#65a830" d="M 187.25 76.917969 C 187.25 77.21875 187.191406 77.511719 187.078125 77.789062 C 186.960938 78.066406 186.796875 78.3125 186.585938 78.527344 C 186.375 78.738281 186.128906 78.902344 185.851562 79.019531 C 185.574219 79.132812 185.285156 79.191406 184.984375 79.191406 C 184.683594 79.191406 184.394531 79.132812 184.117188 79.019531 C 183.839844 78.902344 183.597656 78.738281 183.382812 78.527344 C 183.171875 78.3125 183.007812 78.066406 182.894531 77.789062 C 182.777344 77.511719 182.722656 77.21875 182.722656 76.917969 C 182.722656 76.617188 182.777344 76.328125 182.894531 76.050781 C 183.007812 75.769531 183.171875 75.527344 183.382812 75.3125 C 183.597656 75.097656 183.839844 74.933594 184.117188 74.820312 C 184.394531 74.703125 184.683594 74.648438 184.984375 74.648438 C 185.285156 74.648438 185.574219 74.703125 185.851562 74.820312 C 186.128906 74.933594 186.375 75.097656 186.585938 75.3125 C 186.796875 75.527344 186.960938 75.769531 187.078125 76.050781 C 187.191406 76.328125 187.25 76.617188 187.25 76.917969 Z M 187.25 76.917969 " fill-opacity="1" fill-rule="nonzero"/><g clip-path="url(#7d0527ebbd)"><path fill="#65a830" d="M 203.417969 129.296875 C 203.417969 129.621094 203.386719 129.945312 203.320312 130.265625 C 203.257812 130.582031 203.164062 130.894531 203.039062 131.195312 C 202.917969 131.496094 202.765625 131.78125 202.582031 132.050781 C 202.402344 132.324219 202.199219 132.574219 201.96875 132.804688 C 201.738281 133.035156 201.488281 133.242188 201.21875 133.421875 C 200.949219 133.601562 200.664062 133.753906 200.363281 133.878906 C 200.066406 134.003906 199.753906 134.097656 199.4375 134.164062 C 199.117188 134.226562 198.796875 134.257812 198.472656 134.257812 C 198.148438 134.257812 197.828125 134.226562 197.507812 134.164062 C 197.191406 134.097656 196.882812 134.003906 196.582031 133.878906 C 196.28125 133.753906 195.996094 133.601562 195.726562 133.421875 C 195.457031 133.242188 195.207031 133.035156 194.976562 132.804688 C 194.746094 132.574219 194.542969 132.324219 194.363281 132.054688 C 194.183594 131.78125 194.03125 131.496094 193.90625 131.195312 C 193.78125 130.894531 193.6875 130.582031 193.625 130.265625 C 193.5625 129.945312 193.527344 129.621094 193.527344 129.296875 C 193.527344 128.96875 193.5625 128.648438 193.625 128.328125 C 193.6875 128.007812 193.78125 127.699219 193.90625 127.398438 C 194.03125 127.097656 194.183594 126.808594 194.363281 126.539062 C 194.542969 126.269531 194.746094 126.019531 194.976562 125.789062 C 195.207031 125.558594 195.457031 125.351562 195.726562 125.171875 C 195.996094 124.988281 196.28125 124.835938 196.582031 124.710938 C 196.882812 124.585938 197.191406 124.492188 197.507812 124.429688 C 197.828125 124.367188 198.148438 124.335938 198.472656 124.335938 C 198.796875 124.335938 199.117188 124.367188 199.4375 124.429688 C 199.753906 124.492188 200.066406 124.585938 200.363281 124.710938 C 200.664062 124.835938 200.949219 124.988281 201.21875 125.171875 C 201.488281 125.351562 201.738281 125.558594 201.96875 125.789062 C 202.199219 126.019531 202.402344 126.269531 202.582031 126.539062 C 202.765625 126.808594 202.917969 127.097656 203.039062 127.398438 C 203.164062 127.699219 203.257812 128.007812 203.320312 128.328125 C 203.386719 128.648438 203.417969 128.96875 203.417969 129.296875 Z M 203.417969 129.296875 " fill-opacity="1" fill-rule="nonzero"/></g><g clip-path="url(#3d34eaa5d3)"><path fill="#65a830" d="M 16.109375 147.183594 C 16.109375 147.507812 16.078125 147.832031 16.011719 148.152344 C 15.949219 148.46875 15.855469 148.78125 15.730469 149.082031 C 15.609375 149.382812 15.457031 149.667969 15.273438 149.9375 C 15.09375 150.210938 14.890625 150.460938 14.660156 150.691406 C 14.429688 150.921875 14.179688 151.128906 13.910156 151.308594 C 13.640625 151.488281 13.355469 151.640625 13.054688 151.765625 C 12.757812 151.890625 12.449219 151.984375 12.128906 152.050781 C 11.8125 152.113281 11.488281 152.144531 11.164062 152.144531 C 10.839844 152.144531 10.519531 152.113281 10.199219 152.050781 C 9.882812 151.984375 9.574219 151.890625 9.273438 151.765625 C 8.972656 151.640625 8.6875 151.488281 8.417969 151.308594 C 8.148438 151.128906 7.898438 150.921875 7.667969 150.691406 C 7.4375 150.460938 7.234375 150.210938 7.054688 149.9375 C 6.875 149.667969 6.722656 149.382812 6.597656 149.082031 C 6.472656 148.78125 6.378906 148.46875 6.316406 148.152344 C 6.253906 147.832031 6.222656 147.507812 6.222656 147.183594 C 6.222656 146.855469 6.253906 146.535156 6.316406 146.214844 C 6.378906 145.894531 6.472656 145.585938 6.597656 145.285156 C 6.722656 144.984375 6.875 144.695312 7.054688 144.425781 C 7.234375 144.15625 7.4375 143.902344 7.667969 143.675781 C 7.898438 143.445312 8.148438 143.238281 8.417969 143.058594 C 8.6875 142.875 8.972656 142.722656 9.273438 142.597656 C 9.574219 142.472656 9.882812 142.378906 10.199219 142.316406 C 10.519531 142.253906 10.839844 142.21875 11.164062 142.21875 C 11.488281 142.21875 11.8125 142.253906 12.128906 142.316406 C 12.449219 142.378906 12.757812 142.472656 13.054688 142.597656 C 13.355469 142.722656 13.640625 142.875 13.910156 143.058594 C 14.179688 143.238281 14.429688 143.445312 14.660156 143.675781 C 14.890625 143.902344 15.09375 144.15625 15.273438 144.425781 C 15.457031 144.695312 15.609375 144.984375 15.730469 145.285156 C 15.855469 145.585938 15.949219 145.894531 16.011719 146.214844 C 16.078125 146.535156 16.109375 146.855469 16.109375 147.183594 Z M 16.109375 147.183594 " fill-opacity="1" fill-rule="nonzero"/></g><path fill="#65a830" d="M 34.777344 116.28125 C 34.777344 116.667969 34.707031 117.039062 34.558594 117.394531 C 34.410156 117.75 34.203125 118.0625 33.929688 118.335938 C 33.660156 118.609375 33.347656 118.816406 32.992188 118.964844 C 32.636719 119.113281 32.269531 119.1875 31.886719 119.1875 C 31.503906 119.1875 31.132812 119.113281 30.777344 118.964844 C 30.425781 118.816406 30.113281 118.609375 29.839844 118.335938 C 29.570312 118.0625 29.359375 117.75 29.214844 117.394531 C 29.066406 117.039062 28.992188 116.667969 28.992188 116.28125 C 28.992188 115.898438 29.066406 115.527344 29.214844 115.171875 C 29.359375 114.816406 29.570312 114.5 29.839844 114.230469 C 30.113281 113.957031 30.425781 113.746094 30.777344 113.601562 C 31.132812 113.453125 31.503906 113.378906 31.886719 113.378906 C 32.269531 113.378906 32.636719 113.453125 32.992188 113.601562 C 33.347656 113.746094 33.660156 113.957031 33.929688 114.230469 C 34.203125 114.5 34.410156 114.816406 34.558594 115.171875 C 34.707031 115.527344 34.777344 115.898438 34.777344 116.28125 Z M 34.777344 116.28125 " fill-opacity="1" fill-rule="nonzero"/><path fill="#65a830" d="M 59.476562 193.929688 C 59.476562 194.230469 59.417969 194.523438 59.304688 194.800781 C 59.1875 195.078125 59.023438 195.324219 58.8125 195.535156 C 58.601562 195.75 58.355469 195.914062 58.078125 196.03125 C 57.800781 196.144531 57.511719 196.203125 57.210938 196.203125 C 56.910156 196.203125 56.621094 196.144531 56.34375 196.03125 C 56.066406 195.914062 55.824219 195.75 55.609375 195.535156 C 55.398438 195.324219 55.234375 195.078125 55.121094 194.800781 C 55.003906 194.523438 54.949219 194.230469 54.949219 193.929688 C 54.949219 193.628906 55.003906 193.339844 55.121094 193.0625 C 55.234375 192.78125 55.398438 192.535156 55.609375 192.324219 C 55.824219 192.109375 56.066406 191.945312 56.34375 191.832031 C 56.621094 191.714844 56.910156 191.660156 57.210938 191.660156 C 57.511719 191.660156 57.800781 191.714844 58.078125 191.832031 C 58.355469 191.945312 58.601562 192.109375 58.8125 192.324219 C 59.023438 192.535156 59.1875 192.78125 59.304688 193.0625 C 59.417969 193.339844 59.476562 193.628906 59.476562 193.929688 Z M 59.476562 193.929688 " fill-opacity="1" fill-rule="nonzero"/><path fill="#5f755c" d="M 84.496094 69.242188 C 84.445312 69.09375 79.273438 54.265625 76.09375 42.15625 C 72.886719 29.9375 74.125 20.464844 74.148438 20.066406 L 74.316406 20.066406 C 74.308594 20.164062 74.765625 29.765625 77.890625 41.679688 C 81.050781 53.71875 86.203125 68.476562 86.253906 68.625 Z M 84.496094 69.242188 " fill-opacity="1" fill-rule="nonzero"/><path fill="#97c347" d="M 165.179688 127.949219 C 165.179688 127.949219 164.570312 129.613281 158.992188 129.554688 C 153.410156 129.492188 142.050781 129.496094 137.832031 130.285156 C 133.613281 131.074219 125.101562 134.386719 121.792969 137.035156 C 118.480469 139.6875 112.269531 143.550781 112.269531 143.550781 C 112.269531 143.550781 121.828125 152.632812 124.65625 155.617188 C 127.480469 158.605469 130.347656 164.597656 133.117188 165.652344 C 135.886719 166.707031 137.800781 166.542969 139.429688 165.542969 C 141.0625 164.542969 142.050781 163.597656 142.023438 161.988281 C 141.992188 160.375 138.71875 154.632812 134.917969 151.515625 C 131.113281 148.398438 129.554688 146.753906 129.554688 146.753906 C 129.554688 146.753906 128.335938 145.324219 129.058594 144.378906 C 129.78125 143.429688 131.433594 144.578125 131.433594 144.578125 C 131.433594 144.578125 135.582031 148.015625 141.332031 148.816406 C 147.078125 149.613281 153.421875 149.824219 158.40625 145.417969 C 163.390625 141.011719 164.007812 138.164062 164.722656 135.195312 C 165.433594 132.230469 165.179688 127.949219 165.179688 127.949219 Z M 165.179688 127.949219 " fill-opacity="1" fill-rule="nonzero"/><path fill="#97c347" d="M 88.753906 75.765625 C 88.757812 75.679688 88.769531 75.511719 88.753906 75.765625 Z M 88.753906 75.765625 " fill-opacity="1" fill-rule="nonzero"/><path fill="#97c347" d="M 146.386719 111.140625 C 146.386719 111.144531 146.378906 111.152344 146.371094 111.164062 C 146.378906 111.152344 146.386719 111.140625 146.386719 111.140625 Z M 146.386719 111.140625 " fill-opacity="1" fill-rule="nonzero"/><path fill="#97c347" d="M 128.867188 89.195312 C 128.867188 89.1875 128.867188 89.179688 128.867188 89.167969 C 128.871094 89.15625 128.871094 89.152344 128.875 89.136719 C 128.871094 89.15625 128.867188 89.175781 128.867188 89.195312 Z M 128.867188 89.195312 " fill-opacity="1" fill-rule="nonzero"/><path fill="#97c347" d="M 145.136719 112.039062 C 145.136719 112.042969 145.09375 112.066406 145.050781 112.085938 C 145.09375 112.0625 145.136719 112.039062 145.136719 112.039062 Z M 145.136719 112.039062 " fill-opacity="1" fill-rule="nonzero"/><path fill="#97c347" d="M 128.867188 89.234375 C 128.867188 89.257812 128.863281 89.285156 128.859375 89.308594 C 128.859375 89.269531 128.863281 89.230469 128.867188 89.195312 C 128.867188 89.207031 128.867188 89.222656 128.867188 89.234375 Z M 128.867188 89.234375 " fill-opacity="1" fill-rule="nonzero"/><path fill="#97c347" d="M 84.375 117.027344 C 84.425781 116.972656 84.496094 116.894531 84.523438 116.894531 C 84.515625 116.894531 84.414062 116.988281 84.375 117.027344 Z M 84.375 117.027344 " fill-opacity="1" fill-rule="nonzero"/><path fill="#97c347" d="M 106.75 78.238281 C 106.742188 78.265625 106.730469 78.300781 106.722656 78.324219 C 106.730469 78.292969 106.738281 78.265625 106.75 78.238281 Z M 106.75 78.238281 " fill-opacity="1" fill-rule="nonzero"/><path fill="#97c347" d="M 43.269531 112.695312 C 42.679688 100.699219 50.507812 95.292969 50.507812 95.292969 C 50.507812 95.292969 50.035156 87.175781 54.339844 81.484375 C 58.402344 76.109375 67.382812 74.34375 67.382812 74.34375 C 67.382812 74.34375 68.691406 72.078125 74.648438 67.808594 C 78.878906 64.773438 85.226562 64.539062 88.5625 64.65625 C 88.496094 64.769531 88.421875 64.882812 88.355469 65 C 85.203125 70.5625 84.894531 77.28125 86.019531 83.453125 C 86.1875 84.375 86.84375 85.015625 87.816406 84.976562 C 88.65625 84.941406 89.488281 84.03125 89.332031 83.171875 C 89.007812 81.410156 88.796875 79.632812 88.742188 77.84375 C 88.730469 77.453125 88.726562 77.058594 88.730469 76.664062 C 88.734375 76.480469 88.738281 76.296875 88.742188 76.113281 C 88.746094 76.007812 88.75 75.902344 88.75 75.800781 C 88.75 75.792969 88.75 75.78125 88.753906 75.769531 C 88.804688 75.011719 88.871094 74.257812 88.980469 73.507812 C 89.089844 72.78125 89.222656 72.0625 89.398438 71.351562 C 89.480469 71.023438 89.566406 70.699219 89.660156 70.375 C 89.699219 70.238281 89.742188 70.105469 89.785156 69.972656 C 89.796875 69.929688 89.855469 69.765625 89.882812 69.691406 C 90.320312 68.4375 90.878906 67.226562 91.558594 66.085938 C 91.617188 65.988281 91.675781 65.894531 91.734375 65.796875 C 91.75 65.777344 91.789062 65.710938 91.816406 65.667969 C 91.824219 65.65625 91.828125 65.648438 91.832031 65.648438 C 91.882812 65.574219 91.933594 65.5 91.984375 65.421875 C 92.160156 65.164062 92.347656 64.910156 92.539062 64.664062 C 92.949219 64.132812 93.394531 63.625 93.863281 63.144531 C 94.121094 62.875 94.242188 62.539062 94.25 62.195312 C 96.148438 61.3125 99.03125 60.429688 103.386719 59.9375 C 113.390625 58.820312 121.191406 65.550781 121.191406 65.550781 C 121.191406 65.550781 125.207031 62.339844 132.65625 64.644531 C 139.953125 66.902344 142.402344 74.28125 142.402344 74.28125 C 142.402344 74.28125 147.164062 73.550781 154.648438 78.398438 C 162.136719 83.246094 162.855469 94.261719 162.855469 94.261719 C 166.710938 96.335938 169.152344 102.367188 170.246094 105.144531 C 171.335938 107.917969 173.046875 112.933594 168.570312 120.777344 C 164.09375 128.617188 159.179688 126.3125 153.703125 125.777344 C 148.226562 125.242188 136.347656 126.6875 126.433594 131.15625 C 116.523438 135.625 114.558594 137.730469 105.476562 143.527344 C 96.394531 149.324219 86.101562 145.898438 81.054688 142.027344 C 77.609375 139.382812 76.574219 135.261719 76.261719 132.917969 C 76.390625 132.03125 76.546875 131.148438 76.738281 130.273438 C 76.882812 129.628906 77.042969 128.992188 77.226562 128.363281 C 77.273438 128.195312 77.324219 128.027344 77.375 127.863281 C 77.398438 127.800781 77.441406 127.695312 77.46875 127.636719 C 77.5 127.566406 77.492188 127.582031 77.46875 127.636719 C 77.457031 127.667969 77.4375 127.707031 77.402344 127.78125 C 77.527344 127.511719 77.597656 127.195312 77.703125 126.914062 C 78.113281 125.789062 78.601562 124.691406 79.164062 123.636719 C 79.441406 123.121094 79.742188 122.617188 80.050781 122.121094 C 80.085938 122.070312 80.117188 122.019531 80.148438 121.972656 C 80.238281 121.835938 80.332031 121.699219 80.425781 121.5625 C 80.585938 121.332031 80.75 121.105469 80.917969 120.878906 C 81.652344 119.894531 82.460938 118.957031 83.320312 118.074219 C 83.539062 117.851562 83.761719 117.628906 83.984375 117.414062 C 84.097656 117.300781 84.214844 117.191406 84.332031 117.085938 C 84.339844 117.078125 84.351562 117.0625 84.363281 117.046875 C 84.371094 117.042969 84.394531 117.023438 84.449219 116.976562 C 84.96875 116.511719 85.492188 116.054688 86.035156 115.613281 C 87.441406 114.464844 88.914062 113.398438 90.433594 112.410156 C 91.214844 111.898438 92.011719 111.414062 92.816406 110.945312 C 93.230469 110.703125 93.648438 110.46875 94.066406 110.238281 C 94.246094 110.140625 94.421875 110.042969 94.601562 109.949219 C 94.589844 109.953125 94.773438 109.859375 94.839844 109.820312 C 94.886719 109.796875 94.941406 109.769531 94.953125 109.761719 C 96.628906 108.894531 98.339844 108.089844 100.054688 107.304688 C 101.78125 106.519531 103.53125 105.785156 105.332031 105.207031 C 105.808594 105.054688 106.289062 104.914062 106.769531 104.785156 C 106.996094 104.726562 107.226562 104.667969 107.457031 104.613281 C 107.785156 104.535156 107.554688 104.59375 107.484375 104.605469 C 107.585938 104.585938 107.691406 104.5625 107.792969 104.542969 C 108.753906 104.355469 109.722656 104.234375 110.691406 104.136719 C 112.609375 103.949219 114.53125 103.871094 116.441406 103.632812 C 118.242188 103.40625 120.050781 103.03125 121.804688 102.5625 C 123.472656 102.117188 125.097656 101.488281 126.554688 100.546875 C 128.003906 99.613281 129.132812 98.367188 130.015625 96.890625 C 130.050781 96.832031 130.082031 96.769531 130.117188 96.710938 C 132.414062 96.53125 134.707031 96.285156 136.929688 95.660156 C 138.148438 95.316406 139.300781 94.824219 140.398438 94.199219 C 141.417969 93.613281 142.230469 92.773438 143.21875 92.152344 C 144.007812 91.660156 144.085938 90.554688 143.621094 89.828125 C 143.117188 89.042969 142.042969 88.964844 141.304688 89.429688 C 140.335938 90.035156 139.535156 90.859375 138.542969 91.4375 C 138.515625 91.449219 138.371094 91.53125 138.300781 91.570312 C 138.222656 91.609375 138.101562 91.667969 138.078125 91.679688 C 137.832031 91.796875 137.585938 91.902344 137.332031 92.003906 C 136.824219 92.207031 136.304688 92.382812 135.777344 92.53125 C 135.496094 92.609375 135.203125 92.695312 134.917969 92.75 C 134.878906 92.757812 134.835938 92.765625 134.800781 92.769531 C 134.664062 92.796875 134.527344 92.824219 134.390625 92.851562 C 133.839844 92.949219 133.285156 93.035156 132.730469 93.105469 C 132.332031 93.15625 131.933594 93.199219 131.53125 93.238281 C 131.613281 92.957031 131.683594 92.679688 131.75 92.398438 C 132.101562 90.898438 132.261719 89.316406 132.160156 87.773438 C 131.921875 84.21875 130.152344 80.804688 127.425781 78.53125 C 126.710938 77.933594 125.699219 78.0625 125.085938 78.730469 C 124.480469 79.390625 124.617188 80.519531 125.285156 81.078125 C 125.589844 81.335938 125.886719 81.605469 126.167969 81.894531 C 126.195312 81.921875 126.21875 81.949219 126.246094 81.976562 C 126.277344 82.007812 126.34375 82.085938 126.375 82.121094 C 126.503906 82.273438 126.628906 82.429688 126.753906 82.585938 C 126.996094 82.90625 127.222656 83.238281 127.433594 83.578125 C 127.539062 83.746094 127.632812 83.917969 127.734375 84.09375 C 127.777344 84.183594 127.824219 84.277344 127.867188 84.371094 C 128.039062 84.734375 128.191406 85.105469 128.324219 85.484375 C 128.449219 85.84375 128.625 86.257812 128.664062 86.640625 C 128.664062 86.636719 128.664062 86.632812 128.660156 86.628906 C 128.664062 86.660156 128.671875 86.691406 128.675781 86.726562 C 128.691406 86.8125 128.710938 86.902344 128.726562 86.988281 C 128.753906 87.164062 128.777344 87.34375 128.800781 87.519531 C 128.84375 87.902344 128.867188 88.289062 128.871094 88.675781 C 128.875 88.84375 128.871094 89.007812 128.867188 89.171875 C 128.824219 89.433594 128.84375 89.394531 128.859375 89.3125 C 128.859375 89.335938 128.855469 89.355469 128.855469 89.375 C 128.828125 89.734375 128.789062 90.09375 128.738281 90.449219 C 128.628906 91.1875 128.46875 91.917969 128.257812 92.632812 C 128.230469 92.726562 128.203125 92.820312 128.175781 92.910156 C 128.171875 92.921875 128.167969 92.925781 128.164062 92.9375 C 128.109375 93.09375 128.054688 93.25 127.992188 93.410156 C 127.859375 93.757812 127.714844 94.097656 127.554688 94.433594 C 127.398438 94.761719 127.226562 95.085938 127.042969 95.398438 C 127.019531 95.433594 126.992188 95.492188 126.964844 95.542969 C 126.949219 95.558594 126.933594 95.574219 126.925781 95.59375 C 126.824219 95.738281 126.726562 95.878906 126.617188 96.019531 C 126.414062 96.289062 126.191406 96.550781 125.953125 96.789062 C 125.929688 96.816406 125.875 96.882812 125.828125 96.921875 C 125.808594 96.933594 125.789062 96.949219 125.773438 96.964844 C 125.621094 97.097656 125.460938 97.226562 125.300781 97.347656 C 124.976562 97.59375 124.640625 97.820312 124.292969 98.027344 C 124.214844 98.070312 124.136719 98.113281 124.058594 98.160156 C 124.046875 98.167969 124.035156 98.175781 124.023438 98.183594 C 123.839844 98.269531 123.660156 98.359375 123.476562 98.445312 C 122.734375 98.78125 121.960938 99.050781 121.175781 99.277344 C 120.78125 99.394531 120.378906 99.5 119.976562 99.59375 C 119.886719 99.617188 119.796875 99.636719 119.710938 99.660156 C 119.6875 99.664062 119.671875 99.667969 119.65625 99.671875 C 119.460938 99.714844 119.261719 99.753906 119.0625 99.796875 C 118.203125 99.976562 117.339844 100.144531 116.464844 100.261719 C 114.585938 100.515625 112.6875 100.59375 110.804688 100.765625 C 108.8125 100.945312 106.855469 101.277344 104.933594 101.835938 C 101.332031 102.894531 97.886719 104.5625 94.539062 106.242188 C 91.214844 107.917969 88.015625 109.839844 85.066406 112.125 C 80.878906 115.367188 77.269531 119.324219 75.179688 124.257812 C 74.199219 126.574219 73.550781 128.988281 73.132812 131.449219 C 70.148438 131.761719 65.601562 132.195312 62.648438 132.269531 C 57.941406 132.382812 53.644531 130.601562 51.796875 129.035156 C 49.953125 127.472656 43.859375 124.695312 43.269531 112.695312 Z M 112.035156 120.027344 C 110.257812 119.511719 108.335938 119.4375 106.515625 119.761719 C 103.339844 120.324219 100.574219 121.863281 97.839844 123.5 C 95.359375 124.980469 92.921875 126.710938 91.183594 129.054688 C 90.625 129.804688 90.6875 130.765625 91.382812 131.40625 C 92.015625 131.988281 93.203125 131.90625 93.722656 131.207031 C 94.175781 130.597656 94.675781 130.027344 95.21875 129.496094 C 95.304688 129.410156 95.652344 129.105469 95.394531 129.324219 C 95.546875 129.191406 95.695312 129.058594 95.851562 128.929688 C 96.128906 128.695312 96.410156 128.46875 96.699219 128.253906 C 97.761719 127.445312 98.894531 126.730469 100.042969 126.054688 C 100.617188 125.714844 101.195312 125.386719 101.777344 125.054688 C 101.941406 124.960938 102.101562 124.867188 102.265625 124.78125 C 102.335938 124.742188 102.402344 124.703125 102.472656 124.667969 C 102.476562 124.667969 102.476562 124.667969 102.480469 124.664062 C 102.816406 124.5 103.152344 124.332031 103.492188 124.175781 C 104.148438 123.882812 104.824219 123.625 105.511719 123.410156 C 105.699219 123.355469 105.890625 123.300781 106.082031 123.246094 C 106.148438 123.230469 106.351562 123.179688 106.394531 123.167969 C 106.722656 123.097656 107.050781 123.042969 107.378906 123 C 107.742188 122.953125 108.109375 122.921875 108.476562 122.910156 C 108.648438 122.902344 108.820312 122.902344 108.992188 122.902344 C 109.015625 122.902344 109.101562 122.90625 109.15625 122.90625 C 109.183594 122.90625 109.203125 122.90625 109.210938 122.90625 C 109.964844 122.96875 110.703125 123.101562 111.429688 123.3125 C 112.320312 123.570312 113.179688 122.789062 113.367188 121.980469 C 113.582031 121.035156 112.867188 120.269531 112.035156 120.027344 Z M 145.398438 111.875 C 145.292969 111.941406 145.1875 112 145.082031 112.066406 C 145.054688 112.082031 145.039062 112.089844 145.019531 112.101562 C 144.996094 112.113281 144.972656 112.121094 144.96875 112.125 C 144.460938 112.371094 143.933594 112.570312 143.394531 112.730469 C 143.234375 112.777344 143.070312 112.824219 142.90625 112.863281 C 142.882812 112.871094 142.859375 112.875 142.835938 112.882812 C 142.765625 112.886719 142.101562 113.011719 142.03125 113.023438 C 141.464844 113.105469 140.894531 113.148438 140.324219 113.164062 C 140 113.171875 139.671875 113.171875 139.347656 113.160156 C 139.269531 113.160156 138.996094 113.144531 139.078125 113.148438 C 138.921875 113.140625 138.769531 113.128906 138.613281 113.117188 C 137.902344 113.0625 137.199219 112.980469 136.496094 112.890625 C 133.753906 112.535156 130.984375 112.039062 128.210938 112.289062 C 125.523438 112.535156 123.027344 113.453125 121.035156 115.308594 C 120.355469 115.941406 120.636719 117.109375 121.234375 117.65625 C 121.539062 117.9375 122.039062 118.078125 122.445312 118.042969 C 122.921875 118.003906 123.234375 117.769531 123.574219 117.457031 C 123.28125 117.730469 123.734375 117.332031 123.804688 117.28125 C 123.921875 117.1875 124.042969 117.097656 124.167969 117.011719 C 124.308594 116.914062 124.453125 116.824219 124.597656 116.734375 C 124.671875 116.691406 124.746094 116.648438 124.824219 116.605469 C 125.117188 116.433594 124.792969 116.605469 124.78125 116.625 C 124.832031 116.542969 125.101562 116.472656 125.1875 116.433594 C 125.347656 116.363281 125.507812 116.296875 125.667969 116.238281 C 125.96875 116.121094 126.28125 116.019531 126.59375 115.933594 C 126.710938 115.902344 126.851562 115.84375 126.988281 115.820312 C 126.929688 115.832031 126.914062 115.84375 127.050781 115.820312 C 127.136719 115.804688 127.222656 115.789062 127.308594 115.773438 C 127.632812 115.714844 127.960938 115.671875 128.289062 115.636719 C 128.972656 115.566406 129.65625 115.542969 130.34375 115.554688 C 130.429688 115.554688 130.515625 115.558594 130.601562 115.558594 C 130.664062 115.5625 130.761719 115.566406 130.789062 115.566406 C 130.867188 115.570312 130.945312 115.578125 131.027344 115.582031 C 131.367188 115.609375 131.707031 115.640625 132.046875 115.675781 C 132.753906 115.75 133.460938 115.839844 134.164062 115.9375 C 135.597656 116.132812 137.027344 116.347656 138.472656 116.433594 C 141.058594 116.589844 143.75 116.414062 146.121094 115.257812 C 147.328125 114.664062 148.425781 113.90625 149.308594 112.878906 C 150.183594 111.867188 150.796875 110.644531 151.230469 109.386719 C 152.1875 106.582031 152.640625 103.644531 153.082031 100.722656 C 153.21875 99.796875 152.652344 98.984375 151.75 98.777344 C 150.898438 98.574219 149.945312 99.246094 149.8125 100.109375 C 149.566406 101.742188 149.320312 103.375 148.980469 104.992188 C 148.820312 105.765625 148.636719 106.535156 148.421875 107.296875 C 148.378906 107.453125 148.332031 107.609375 148.285156 107.765625 C 148.265625 107.835938 148.160156 108.152344 148.273438 107.820312 C 148.25 107.886719 148.226562 107.953125 148.207031 108.019531 C 148.089844 108.347656 147.96875 108.675781 147.824219 108.992188 C 147.695312 109.289062 147.550781 109.582031 147.394531 109.863281 C 147.359375 109.917969 147.296875 110.019531 147.277344 110.058594 C 147.207031 110.164062 147.132812 110.269531 147.058594 110.371094 C 146.878906 110.609375 146.683594 110.835938 146.476562 111.050781 C 146.433594 111.09375 146.390625 111.136719 146.34375 111.183594 C 146.316406 111.210938 146.300781 111.226562 146.289062 111.238281 C 146.214844 111.296875 146.121094 111.367188 146.101562 111.382812 C 145.875 111.554688 145.640625 111.71875 145.398438 111.875 Z M 77.683594 103.921875 C 78.625 104.140625 79.371094 103.417969 79.621094 102.585938 C 79.636719 102.546875 79.644531 102.515625 79.652344 102.484375 C 79.671875 102.421875 79.695312 102.359375 79.714844 102.300781 C 79.777344 102.125 79.839844 101.953125 79.90625 101.785156 C 80.035156 101.460938 80.167969 101.144531 80.316406 100.832031 C 80.472656 100.5 80.636719 100.175781 80.8125 99.855469 C 80.902344 99.695312 80.992188 99.539062 81.089844 99.382812 C 81.136719 99.300781 81.417969 98.789062 81.210938 99.171875 C 81.539062 98.558594 82.042969 97.988281 82.488281 97.464844 C 82.726562 97.1875 82.972656 96.914062 83.226562 96.652344 C 83.351562 96.523438 83.480469 96.394531 83.613281 96.265625 C 83.6875 96.195312 83.761719 96.125 83.835938 96.054688 C 83.976562 95.925781 83.746094 96.140625 83.746094 96.136719 C 83.695312 96.054688 85.121094 95.015625 85.261719 94.914062 C 85.792969 94.535156 86.339844 94.1875 86.90625 93.875 C 86.933594 93.859375 87.035156 93.804688 87.085938 93.777344 C 87.226562 93.710938 87.359375 93.640625 87.5 93.578125 C 87.773438 93.449219 88.054688 93.324219 88.335938 93.210938 C 88.9375 92.972656 89.554688 92.765625 90.179688 92.597656 C 90.238281 92.582031 90.390625 92.542969 90.488281 92.519531 C 90.640625 92.484375 90.800781 92.457031 90.957031 92.425781 C 91.359375 92.351562 91.765625 92.292969 92.167969 92.238281 C 93.035156 92.128906 93.902344 92.054688 94.773438 91.984375 C 96.453125 91.839844 98.117188 91.660156 99.753906 91.25 C 101.214844 90.882812 102.660156 90.28125 103.875 89.378906 C 105.238281 88.367188 106.214844 87.011719 107.042969 85.542969 C 108.601562 82.785156 110.050781 79.769531 110.527344 76.609375 C 110.667969 75.683594 110.101562 74.871094 109.199219 74.664062 C 108.34375 74.464844 107.390625 75.132812 107.261719 75.996094 C 107.1875 76.464844 107.097656 76.929688 106.984375 77.390625 C 106.933594 77.609375 106.875 77.824219 106.808594 78.039062 C 106.789062 78.105469 106.769531 78.171875 106.75 78.234375 C 106.769531 78.175781 106.777344 78.140625 106.726562 78.324219 C 106.722656 78.328125 106.722656 78.335938 106.71875 78.339844 C 106.429688 79.191406 106.085938 80.023438 105.707031 80.839844 C 105.34375 81.632812 104.945312 82.410156 104.542969 83.179688 C 104.347656 83.554688 104.148438 83.925781 103.9375 84.292969 C 103.851562 84.445312 103.761719 84.59375 103.671875 84.738281 C 103.660156 84.75 103.5 84.996094 103.457031 85.058594 C 103.226562 85.382812 102.980469 85.691406 102.710938 85.984375 C 102.625 86.078125 102.53125 86.171875 102.441406 86.261719 C 102.53125 86.167969 102.25 86.429688 102.175781 86.488281 C 101.894531 86.710938 101.601562 86.914062 101.292969 87.097656 C 101.222656 87.140625 100.941406 87.285156 100.976562 87.273438 C 100.851562 87.332031 100.730469 87.394531 100.601562 87.449219 C 99.957031 87.730469 99.289062 87.949219 98.605469 88.117188 C 98.5625 88.128906 98.523438 88.140625 98.492188 88.148438 C 98.429688 88.160156 98.371094 88.171875 98.308594 88.1875 C 98.132812 88.222656 97.953125 88.257812 97.773438 88.289062 C 97.417969 88.347656 97.058594 88.402344 96.695312 88.445312 C 93.484375 88.839844 90.238281 88.855469 87.191406 90.085938 C 81.988281 92.179688 77.984375 96.605469 76.363281 101.972656 C 76.085938 102.867188 76.886719 103.734375 77.683594 103.921875 Z M 53.789062 117.339844 C 54.515625 117.726562 55.730469 117.382812 56.003906 116.550781 C 56.375 115.433594 56.832031 114.351562 57.398438 113.324219 C 57.535156 113.066406 57.683594 112.816406 57.839844 112.566406 C 57.851562 112.546875 57.863281 112.527344 57.875 112.507812 C 57.886719 112.488281 57.90625 112.460938 57.9375 112.414062 C 58.015625 112.304688 58.089844 112.191406 58.167969 112.082031 C 58.488281 111.625 58.839844 111.1875 59.210938 110.765625 C 59.40625 110.546875 59.605469 110.335938 59.8125 110.132812 C 59.875 110.070312 59.9375 110.015625 60 109.953125 C 60.035156 109.925781 60.152344 109.816406 60.191406 109.785156 C 60.660156 109.382812 61.15625 109.011719 61.679688 108.679688 C 61.933594 108.519531 62.191406 108.371094 62.457031 108.222656 C 62.527344 108.183594 62.597656 108.148438 62.667969 108.113281 C 62.796875 108.050781 62.925781 107.992188 63.054688 107.933594 C 63.4375 107.765625 63.832031 107.621094 64.226562 107.488281 C 64.71875 108.21875 65.273438 108.90625 65.882812 109.550781 C 66.523438 110.222656 67.671875 109.957031 68.226562 109.351562 C 68.878906 108.636719 68.625 107.632812 68.027344 107 C 68 106.972656 67.980469 106.953125 67.96875 106.945312 C 67.957031 106.929688 67.941406 106.914062 67.921875 106.890625 C 67.867188 106.828125 67.8125 106.761719 67.753906 106.695312 C 67.617188 106.53125 67.484375 106.367188 67.359375 106.195312 C 67.085938 105.839844 66.835938 105.46875 66.605469 105.085938 C 66.492188 104.902344 66.390625 104.71875 66.285156 104.53125 C 66.28125 104.527344 66.28125 104.527344 66.277344 104.519531 C 66.234375 104.421875 66.183594 104.324219 66.140625 104.230469 C 65.957031 103.84375 65.792969 103.449219 65.648438 103.046875 C 65.515625 102.683594 65.398438 102.320312 65.296875 101.945312 C 65.277344 101.863281 65.253906 101.78125 65.234375 101.699219 C 65.230469 101.695312 65.222656 101.65625 65.210938 101.609375 C 65.199219 101.550781 65.164062 101.398438 65.164062 101.382812 C 65.148438 101.300781 65.132812 101.214844 65.117188 101.132812 C 64.980469 100.375 64.910156 99.605469 64.90625 98.835938 C 64.90625 98.785156 64.886719 98.199219 64.914062 98.195312 C 64.917969 98.195312 64.882812 98.621094 64.914062 98.257812 C 64.917969 98.171875 64.925781 98.085938 64.933594 98.003906 C 64.964844 97.621094 65.015625 97.238281 65.082031 96.859375 C 65.148438 96.480469 65.230469 96.105469 65.332031 95.734375 C 65.355469 95.652344 65.378906 95.570312 65.402344 95.488281 C 65.402344 95.484375 65.445312 95.347656 65.464844 95.277344 C 65.480469 95.234375 65.496094 95.1875 65.503906 95.167969 C 65.546875 95.050781 65.589844 94.933594 65.636719 94.816406 C 65.964844 93.964844 66.367188 93.148438 66.800781 92.347656 C 67.019531 91.949219 67.246094 91.554688 67.472656 91.15625 C 67.585938 90.964844 67.699219 90.773438 67.8125 90.578125 C 67.859375 90.5 68.144531 89.964844 67.9375 90.363281 C 68.253906 89.757812 68.789062 89.1875 69.257812 88.699219 C 69.371094 88.578125 69.535156 88.335938 69.691406 88.269531 C 69.65625 88.28125 69.414062 88.511719 69.660156 88.300781 C 69.722656 88.246094 69.789062 88.1875 69.855469 88.132812 C 70.171875 87.859375 70.503906 87.605469 70.839844 87.359375 C 71.589844 86.808594 71.734375 85.808594 71.242188 85.035156 C 70.761719 84.289062 69.628906 84.117188 68.925781 84.632812 C 67.25 85.863281 65.914062 87.308594 64.84375 89.089844 C 63.796875 90.835938 62.84375 92.617188 62.226562 94.566406 C 61.699219 96.234375 61.515625 98.011719 61.613281 99.753906 C 61.703125 101.398438 62.0625 102.996094 62.65625 104.5 C 57.949219 106.253906 54.578125 110.371094 53.003906 115.117188 C 52.707031 116.007812 52.914062 116.875 53.789062 117.339844 Z M 53.789062 117.339844 " fill-opacity="1" fill-rule="nonzero"/></svg>