<svg xmlns="http://www.w3.org/2000/svg" xmlns:xlink="http://www.w3.org/1999/xlink" width="280" zoomAndPan="magnify" viewBox="0 0 210 209.999996" height="280" preserveAspectRatio="xMidYMid meet" version="1.0"><defs><clipPath id="40e92873ea"><path d="M 114 95 L 191.085938 95 L 191.085938 192 L 114 192 Z M 114 95 " clip-rule="nonzero"/></clipPath><clipPath id="76c7e2194f"><path d="M 110 179 L 154 179 L 154 203.292969 L 110 203.292969 Z M 110 179 " clip-rule="nonzero"/></clipPath><clipPath id="9505f8ee30"><path d="M 23.085938 95 L 100 95 L 100 192 L 23.085938 192 Z M 23.085938 95 " clip-rule="nonzero"/></clipPath><clipPath id="11ae71fb4d"><path d="M 60 179 L 105 179 L 105 203.292969 L 60 203.292969 Z M 60 179 " clip-rule="nonzero"/></clipPath><clipPath id="90e8e3b35a"><path d="M 109 14.292969 L 165 14.292969 L 165 122 L 109 122 Z M 109 14.292969 " clip-rule="nonzero"/></clipPath><clipPath id="21fbba6de1"><path d="M 51 14.292969 L 107 14.292969 L 107 122 L 51 122 Z M 51 14.292969 " clip-rule="nonzero"/></clipPath></defs><g clip-path="url(#40e92873ea)"><path fill="#fed6a4" d="M 122.933594 140.371094 C 121.484375 142.460938 118.992188 146.128906 117.488281 151.507812 C 115.5625 158.394531 116.707031 162.875 116.871094 170.320312 C 116.976562 175.292969 116.671875 182.4375 114.644531 191.238281 C 125.65625 191.03125 136.671875 190.824219 147.683594 190.617188 C 146.898438 187.808594 145.984375 183.671875 145.699219 178.613281 C 145.414062 173.457031 145.085938 167.515625 147.683594 162.402344 C 150.425781 156.996094 154.8125 155.710938 160.300781 152.132812 C 172.996094 143.84375 178.625 131.6875 184.917969 118.097656 C 186.898438 113.820312 193.777344 98.972656 189.871094 95.945312 C 188.808594 95.121094 187.292969 95.4375 186.652344 95.574219 C 181.164062 96.722656 180.332031 104.851562 174.28125 115.003906 C 172.765625 117.542969 170.300781 121.265625 166.488281 125.402344 C 166.628906 124.046875 166.566406 122.304688 165.5 121.074219 C 162.570312 117.671875 154.261719 120.625 149.167969 122.4375 C 142.113281 124.929688 130.847656 128.933594 122.933594 140.371094 Z M 122.933594 140.371094 " fill-opacity="1" fill-rule="nonzero"/></g><path fill="#050a01" d="M 165.933594 126.988281 C 162.53125 133.027344 156.285156 137.441406 149.535156 138.902344 C 149.296875 138.953125 149.167969 138.605469 149.378906 138.488281 C 153.78125 136.039062 157.910156 133.296875 161.675781 129.964844 C 162.933594 128.875 164.152344 127.734375 165.417969 126.589844 C 165.675781 126.335938 166.113281 126.679688 165.933594 126.988281 Z M 165.933594 126.988281 " fill-opacity="0.2" fill-rule="nonzero"/><g clip-path="url(#76c7e2194f)"><path fill="#79c932" d="M 153.738281 203.242188 L 110.007812 203.242188 C 110.125 200.785156 110.351562 198.152344 110.75 195.375 C 111.628906 189.234375 113.082031 183.976562 114.558594 179.773438 C 126.0625 179.71875 137.566406 179.660156 149.0625 179.605469 C 150.644531 184.816406 152.105469 190.882812 153.074219 197.695312 C 153.347656 199.59375 153.566406 201.445312 153.738281 203.242188 Z M 153.738281 203.242188 " fill-opacity="1" fill-rule="nonzero"/></g><g clip-path="url(#9505f8ee30)"><path fill="#fed6a4" d="M 91.183594 140.371094 C 92.628906 142.460938 95.121094 146.128906 96.625 151.507812 C 98.550781 158.394531 97.410156 162.875 97.242188 170.320312 C 97.128906 175.292969 97.441406 182.4375 99.46875 191.238281 C 88.457031 191.03125 77.445312 190.824219 66.433594 190.617188 C 67.214844 187.808594 68.132812 183.671875 68.414062 178.613281 C 68.699219 173.457031 69.027344 167.515625 66.433594 162.402344 C 63.6875 156.996094 59.300781 155.710938 53.8125 152.132812 C 41.117188 143.84375 35.492188 131.6875 29.195312 118.097656 C 27.214844 113.820312 20.335938 98.972656 24.246094 95.945312 C 25.304688 95.121094 26.820312 95.4375 27.460938 95.574219 C 32.949219 96.722656 33.78125 104.851562 39.832031 115.003906 C 41.347656 117.542969 43.816406 121.265625 47.625 125.402344 C 47.484375 124.046875 47.546875 122.304688 48.613281 121.074219 C 51.546875 117.671875 59.851562 120.625 64.949219 122.4375 C 72 124.929688 83.261719 128.933594 91.183594 140.371094 Z M 91.183594 140.371094 " fill-opacity="1" fill-rule="nonzero"/></g><path fill="#050a01" d="M 48.699219 126.589844 C 53.570312 131.234375 58.800781 135.289062 64.734375 138.488281 C 64.949219 138.605469 64.820312 138.953125 64.578125 138.902344 C 57.832031 137.441406 51.585938 133.027344 48.179688 126.988281 C 48 126.679688 48.433594 126.335938 48.699219 126.589844 Z M 48.699219 126.589844 " fill-opacity="0.2" fill-rule="nonzero"/><g clip-path="url(#11ae71fb4d)"><path fill="#79c932" d="M 60.375 203.242188 L 104.105469 203.242188 C 103.988281 200.785156 103.761719 198.152344 103.363281 195.375 C 102.484375 189.234375 101.03125 183.976562 99.554688 179.773438 C 88.050781 179.71875 76.546875 179.660156 65.050781 179.605469 C 63.46875 184.816406 62.007812 190.882812 61.039062 197.695312 C 60.765625 199.59375 60.546875 201.445312 60.375 203.242188 Z M 60.375 203.242188 " fill-opacity="1" fill-rule="nonzero"/></g><g clip-path="url(#90e8e3b35a)"><path fill="#ec2e98" d="M 109.640625 18.75 C 113.472656 15.285156 118.566406 13.6875 123.4375 14.59375 C 130.339844 15.875 133.808594 21.617188 134.351562 22.550781 C 134.972656 22.5 142.570312 21.972656 147.558594 28.144531 C 152.320312 34.042969 150.59375 40.988281 150.402344 41.695312 C 151.382812 42.007812 157.8125 44.167969 160.832031 51.050781 C 163.984375 58.226562 160.859375 64.691406 160.425781 65.546875 C 161.25 66.648438 165.644531 72.777344 164.355469 81.265625 C 163.070312 89.746094 157.074219 94.273438 155.957031 95.09375 C 156.011719 95.765625 156.492188 103.898438 149.863281 109.183594 C 143.527344 114.234375 136.132812 112.375 135.371094 112.164062 C 134.9375 113.210938 132.296875 119.347656 126.292969 121.117188 C 120.738281 122.742188 113.988281 120.15625 109.648438 114.367188 L 109.648438 18.75 Z M 109.640625 18.75 " fill-opacity="1" fill-rule="nonzero"/></g><path fill="#050a01" d="M 148.316406 96.382812 C 146.15625 96.382812 143.710938 96 141.3125 94.800781 C 136.875 92.574219 133.769531 88.128906 132.085938 81.574219 C 131.953125 81.054688 132.265625 80.523438 132.785156 80.386719 C 133.3125 80.25 133.835938 80.566406 133.972656 81.085938 C 135.507812 87.0625 138.265625 91.085938 142.171875 93.046875 C 147.910156 95.929688 154.3125 93.375 154.375 93.34375 C 154.871094 93.140625 155.441406 93.378906 155.644531 93.875 C 155.851562 94.371094 155.613281 94.941406 155.117188 95.144531 C 154.925781 95.230469 152.058594 96.382812 148.316406 96.382812 Z M 148.316406 96.382812 " fill-opacity="0.2" fill-rule="nonzero"/><path fill="#050a01" d="M 145.203125 81.414062 C 144.683594 81.414062 144.25 81.003906 144.230469 80.476562 C 143.992188 74.425781 145.457031 69.984375 148.59375 67.277344 C 152.945312 63.523438 158.820312 64.578125 159.066406 64.628906 C 159.59375 64.722656 159.945312 65.234375 159.84375 65.765625 C 159.746094 66.292969 159.238281 66.644531 158.707031 66.539062 C 158.636719 66.527344 153.46875 65.625 149.847656 68.761719 C 147.191406 71.066406 145.953125 74.980469 146.167969 80.398438 C 146.1875 80.9375 145.769531 81.390625 145.234375 81.414062 C 145.226562 81.414062 145.214844 81.414062 145.203125 81.414062 Z M 145.203125 81.414062 " fill-opacity="0.2" fill-rule="nonzero"/><path fill="#050a01" d="M 135.546875 111.71875 C 135.457031 111.71875 135.367188 111.703125 135.273438 111.679688 C 134.757812 111.527344 134.460938 110.988281 134.609375 110.472656 C 134.636719 110.386719 136.960938 102.253906 135.851562 98.273438 C 135.707031 97.757812 136.007812 97.214844 136.527344 97.074219 C 137.042969 96.929688 137.585938 97.230469 137.726562 97.75 C 138.988281 102.269531 136.585938 110.660156 136.480469 111.015625 C 136.359375 111.445312 135.96875 111.71875 135.546875 111.71875 Z M 135.546875 111.71875 " fill-opacity="0.2" fill-rule="nonzero"/><path fill="#050a01" d="M 119.738281 101.691406 C 119.257812 101.691406 118.761719 101.679688 118.253906 101.660156 C 117.71875 101.640625 117.300781 101.1875 117.320312 100.648438 C 117.339844 100.113281 117.796875 99.695312 118.332031 99.714844 C 131.304688 100.21875 135.332031 93.640625 135.492188 93.363281 C 135.765625 92.902344 136.359375 92.746094 136.820312 93.011719 C 137.285156 93.28125 137.445312 93.875 137.175781 94.335938 C 137 94.648438 132.800781 101.691406 119.738281 101.691406 Z M 119.738281 101.691406 " fill-opacity="0.2" fill-rule="nonzero"/><path fill="#050a01" d="M 113.601562 109.039062 C 113.414062 109.039062 113.226562 108.984375 113.058594 108.875 C 112.613281 108.570312 112.496094 107.96875 112.796875 107.519531 C 117.089844 101.136719 112.796875 93.210938 112.753906 93.128906 C 112.496094 92.65625 112.660156 92.066406 113.132812 91.804688 C 113.605469 91.546875 114.195312 91.710938 114.457031 92.179688 C 114.660156 92.546875 119.382812 101.214844 114.414062 108.601562 C 114.21875 108.886719 113.910156 109.039062 113.601562 109.039062 Z M 113.601562 109.039062 " fill-opacity="0.2" fill-rule="nonzero"/><path fill="#050a01" d="M 133.027344 93.632812 C 132.988281 93.632812 132.949219 93.632812 132.910156 93.625 C 132.785156 93.613281 120.097656 91.941406 116.648438 77.761719 C 116.519531 77.238281 116.84375 76.714844 117.363281 76.582031 C 117.882812 76.457031 118.410156 76.777344 118.539062 77.296875 C 121.667969 90.136719 132.679688 91.628906 133.144531 91.6875 C 133.675781 91.75 134.0625 92.238281 133.992188 92.773438 C 133.933594 93.269531 133.515625 93.632812 133.027344 93.632812 Z M 133.027344 93.632812 " fill-opacity="0.2" fill-rule="nonzero"/><path fill="#050a01" d="M 125.308594 79.542969 C 124.78125 79.542969 124.347656 79.125 124.335938 78.59375 C 124.320312 78.058594 124.746094 77.609375 125.285156 77.59375 C 125.40625 77.589844 137.457031 77.210938 141.285156 70.304688 C 141.546875 69.832031 142.136719 69.664062 142.609375 69.925781 C 143.082031 70.1875 143.25 70.777344 142.988281 71.25 C 138.617188 79.132812 125.871094 79.527344 125.332031 79.542969 C 125.328125 79.542969 125.316406 79.542969 125.308594 79.542969 Z M 125.308594 79.542969 " fill-opacity="0.2" fill-rule="nonzero"/><path fill="#050a01" d="M 144.542969 58.375 C 144.066406 58.375 143.652344 58.023438 143.578125 57.542969 C 141.628906 44.222656 148.191406 41.335938 148.46875 41.21875 C 148.96875 41.011719 149.535156 41.246094 149.742188 41.742188 C 149.945312 42.234375 149.710938 42.804688 149.226562 43.015625 C 148.980469 43.121094 143.792969 45.585938 145.5 57.257812 C 145.578125 57.789062 145.207031 58.285156 144.679688 58.363281 C 144.640625 58.371094 144.589844 58.375 144.542969 58.375 Z M 144.542969 58.375 " fill-opacity="0.2" fill-rule="nonzero"/><path fill="#050a01" d="M 139.273438 64.28125 C 137.234375 64.28125 134.984375 64.03125 132.523438 63.425781 C 132 63.296875 131.679688 62.765625 131.8125 62.246094 C 131.941406 61.726562 132.46875 61.402344 132.988281 61.535156 C 145.234375 64.554688 151.757812 58.046875 152.027344 57.765625 C 152.402344 57.378906 153.015625 57.371094 153.40625 57.746094 C 153.792969 58.121094 153.800781 58.734375 153.429688 59.121094 C 153.183594 59.378906 148.324219 64.28125 139.273438 64.28125 Z M 139.273438 64.28125 " fill-opacity="0.2" fill-rule="nonzero"/><path fill="#050a01" d="M 126.046875 73.109375 C 125.84375 73.109375 125.644531 73.046875 125.46875 72.914062 C 125.039062 72.59375 124.949219 71.984375 125.269531 71.550781 C 126.464844 69.945312 128.441406 66.585938 128.230469 62.101562 C 127.90625 55.320312 122.796875 51.390625 121.777344 50.671875 C 121.339844 50.359375 121.234375 49.753906 121.542969 49.3125 C 121.851562 48.875 122.460938 48.765625 122.902344 49.078125 C 124.050781 49.886719 129.816406 54.324219 130.179688 62.007812 C 130.425781 67.101562 128.191406 70.902344 126.835938 72.71875 C 126.636719 72.972656 126.34375 73.109375 126.046875 73.109375 Z M 126.046875 73.109375 " fill-opacity="0.2" fill-rule="nonzero"/><path fill="#050a01" d="M 111.191406 78.632812 C 110.875 78.632812 110.566406 78.480469 110.378906 78.199219 C 110.082031 77.75 110.203125 77.148438 110.644531 76.851562 C 114.445312 74.3125 117.496094 71.09375 119.699219 67.277344 C 120.757812 65.449219 121.609375 63.492188 122.234375 61.457031 C 122.398438 60.941406 122.9375 60.652344 123.453125 60.8125 C 123.96875 60.96875 124.257812 61.515625 124.09375 62.03125 C 123.421875 64.207031 122.511719 66.300781 121.382812 68.253906 C 119.027344 72.335938 115.777344 75.773438 111.726562 78.476562 C 111.566406 78.578125 111.375 78.632812 111.191406 78.632812 Z M 111.191406 78.632812 " fill-opacity="0.2" fill-rule="nonzero"/><path fill="#050a01" d="M 120.078125 47.453125 C 118.980469 47.453125 117.839844 47.355469 116.671875 47.136719 C 114.832031 46.785156 113.03125 46.152344 111.332031 45.25 C 110.855469 44.996094 110.675781 44.40625 110.925781 43.933594 C 111.179688 43.464844 111.765625 43.277344 112.242188 43.53125 C 113.769531 44.34375 115.382812 44.910156 117.03125 45.226562 C 123.992188 46.546875 129.945312 42.941406 132.1875 41.328125 C 132.625 41.011719 133.234375 41.117188 133.542969 41.550781 C 133.859375 41.988281 133.757812 42.597656 133.324219 42.90625 C 131.25 44.398438 126.257812 47.453125 120.078125 47.453125 Z M 120.078125 47.453125 " fill-opacity="0.2" fill-rule="nonzero"/><path fill="#050a01" d="M 142.742188 44.421875 C 142.683594 44.421875 142.625 44.417969 142.566406 44.40625 C 138.300781 43.628906 135.230469 41.671875 133.433594 38.589844 C 129.863281 32.460938 132.683594 24.171875 132.804688 23.828125 C 132.980469 23.320312 133.535156 23.054688 134.042969 23.230469 C 134.546875 23.40625 134.820312 23.960938 134.640625 24.464844 C 134.609375 24.542969 131.996094 32.273438 135.117188 37.613281 C 136.617188 40.179688 139.234375 41.820312 142.910156 42.492188 C 143.441406 42.589844 143.792969 43.097656 143.695312 43.628906 C 143.613281 44.089844 143.203125 44.421875 142.742188 44.421875 Z M 142.742188 44.421875 " fill-opacity="0.2" fill-rule="nonzero"/><path fill="#050a01" d="M 112.671875 38.9375 C 112.316406 38.9375 111.972656 38.746094 111.804688 38.40625 C 111.558594 37.929688 111.75 37.339844 112.226562 37.097656 C 123.554688 31.304688 122.976562 19.214844 122.941406 18.703125 C 122.90625 18.167969 123.316406 17.707031 123.855469 17.671875 C 124.402344 17.644531 124.855469 18.046875 124.890625 18.582031 C 124.898438 18.71875 125.601562 32.441406 113.113281 38.828125 C 112.972656 38.90625 112.816406 38.9375 112.671875 38.9375 Z M 112.671875 38.9375 " fill-opacity="0.2" fill-rule="nonzero"/><g clip-path="url(#21fbba6de1)"><path fill="#ec2e98" d="M 106.238281 18.75 C 102.40625 15.285156 97.316406 13.6875 92.441406 14.59375 C 85.539062 15.875 82.074219 21.617188 81.527344 22.550781 C 80.910156 22.5 73.3125 21.972656 68.320312 28.144531 C 63.558594 34.042969 65.289062 40.988281 65.476562 41.695312 C 64.5 42.007812 58.070312 44.167969 55.050781 51.050781 C 51.894531 58.226562 55.019531 64.691406 55.453125 65.546875 C 54.632812 66.648438 50.234375 72.777344 51.527344 81.265625 C 52.8125 89.746094 58.808594 94.273438 59.921875 95.09375 C 59.871094 95.765625 59.386719 103.898438 66.019531 109.183594 C 72.351562 114.234375 79.746094 112.375 80.511719 112.164062 C 80.945312 113.210938 83.582031 119.347656 89.589844 121.117188 C 95.144531 122.742188 101.890625 120.15625 106.234375 114.367188 L 106.234375 18.75 Z M 106.238281 18.75 " fill-opacity="1" fill-rule="nonzero"/></g><path fill="#050a01" d="M 67.566406 96.382812 C 63.824219 96.382812 60.949219 95.222656 60.765625 95.152344 C 60.269531 94.945312 60.03125 94.375 60.234375 93.878906 C 60.441406 93.382812 61.003906 93.144531 61.503906 93.347656 C 61.570312 93.375 67.96875 95.933594 73.710938 93.050781 C 77.613281 91.089844 80.375 87.066406 81.90625 81.089844 C 82.039062 80.570312 82.570312 80.253906 83.089844 80.390625 C 83.613281 80.527344 83.921875 81.058594 83.792969 81.574219 C 82.109375 88.128906 79.007812 92.574219 74.5625 94.800781 C 72.175781 96 69.722656 96.382812 67.566406 96.382812 Z M 67.566406 96.382812 " fill-opacity="0.2" fill-rule="nonzero"/><path fill="#050a01" d="M 70.675781 81.414062 C 70.664062 81.414062 70.652344 81.414062 70.636719 81.414062 C 70.101562 81.394531 69.683594 80.941406 69.703125 80.398438 C 69.917969 74.980469 68.679688 71.066406 66.027344 68.761719 C 62.402344 65.617188 57.222656 66.53125 57.167969 66.539062 C 56.636719 66.636719 56.132812 66.289062 56.035156 65.761719 C 55.9375 65.234375 56.28125 64.722656 56.808594 64.628906 C 57.054688 64.578125 62.9375 63.523438 67.285156 67.277344 C 70.417969 69.984375 71.890625 74.425781 71.644531 80.476562 C 71.632812 81.003906 71.199219 81.414062 70.675781 81.414062 Z M 70.675781 81.414062 " fill-opacity="0.2" fill-rule="nonzero"/><path fill="#050a01" d="M 80.335938 111.71875 C 79.914062 111.71875 79.523438 111.441406 79.402344 111.015625 C 79.296875 110.660156 76.894531 102.269531 78.15625 97.75 C 78.300781 97.234375 78.835938 96.933594 79.351562 97.074219 C 79.867188 97.21875 80.175781 97.757812 80.027344 98.273438 C 78.914062 102.261719 81.246094 110.386719 81.269531 110.472656 C 81.421875 110.988281 81.125 111.527344 80.609375 111.679688 C 80.515625 111.707031 80.421875 111.71875 80.335938 111.71875 Z M 80.335938 111.71875 " fill-opacity="0.2" fill-rule="nonzero"/><path fill="#050a01" d="M 96.140625 101.691406 C 83.082031 101.691406 78.878906 94.648438 78.703125 94.335938 C 78.4375 93.871094 78.597656 93.277344 79.066406 93.007812 C 79.53125 92.742188 80.121094 92.902344 80.394531 93.363281 C 80.566406 93.65625 84.59375 100.226562 97.554688 99.714844 C 98.097656 99.695312 98.542969 100.113281 98.566406 100.648438 C 98.589844 101.183594 98.167969 101.636719 97.632812 101.660156 C 97.121094 101.679688 96.625 101.691406 96.140625 101.691406 Z M 96.140625 101.691406 " fill-opacity="0.2" fill-rule="nonzero"/><path fill="#050a01" d="M 102.28125 109.039062 C 101.96875 109.039062 101.65625 108.886719 101.472656 108.609375 C 96.503906 101.222656 101.226562 92.554688 101.429688 92.191406 C 101.691406 91.71875 102.28125 91.550781 102.753906 91.816406 C 103.222656 92.078125 103.390625 92.667969 103.132812 93.140625 C 103.085938 93.226562 98.796875 101.144531 103.089844 107.53125 C 103.390625 107.976562 103.269531 108.582031 102.828125 108.882812 C 102.65625 108.984375 102.472656 109.039062 102.28125 109.039062 Z M 102.28125 109.039062 " fill-opacity="0.2" fill-rule="nonzero"/><path fill="#050a01" d="M 82.851562 93.632812 C 82.367188 93.632812 81.945312 93.265625 81.886719 92.773438 C 81.824219 92.238281 82.203125 91.757812 82.742188 91.691406 C 83.207031 91.636719 94.21875 90.136719 97.34375 77.304688 C 97.472656 76.78125 97.996094 76.460938 98.523438 76.585938 C 99.042969 76.714844 99.367188 77.238281 99.238281 77.765625 C 95.789062 91.945312 83.101562 93.617188 82.972656 93.632812 C 82.929688 93.632812 82.890625 93.632812 82.851562 93.632812 Z M 82.851562 93.632812 " fill-opacity="0.2" fill-rule="nonzero"/><path fill="#050a01" d="M 90.570312 79.542969 C 90.558594 79.542969 90.554688 79.542969 90.542969 79.542969 C 90.003906 79.527344 77.253906 79.140625 72.886719 71.25 C 72.625 70.777344 72.792969 70.1875 73.265625 69.925781 C 73.738281 69.664062 74.328125 69.832031 74.589844 70.304688 C 78.425781 77.226562 90.472656 77.589844 90.59375 77.59375 C 91.128906 77.609375 91.558594 78.054688 91.542969 78.59375 C 91.53125 79.125 91.097656 79.542969 90.570312 79.542969 Z M 90.570312 79.542969 " fill-opacity="0.2" fill-rule="nonzero"/><path fill="#050a01" d="M 71.339844 58.375 C 71.289062 58.375 71.246094 58.371094 71.199219 58.363281 C 70.667969 58.285156 70.296875 57.792969 70.375 57.257812 C 72.089844 45.558594 66.875 43.113281 66.652344 43.015625 C 66.164062 42.800781 65.9375 42.226562 66.144531 41.738281 C 66.355469 41.253906 66.914062 41.019531 67.40625 41.222656 C 67.6875 41.339844 74.25 44.226562 72.296875 57.546875 C 72.230469 58.023438 71.8125 58.375 71.339844 58.375 Z M 71.339844 58.375 " fill-opacity="0.2" fill-rule="nonzero"/><path fill="#050a01" d="M 76.605469 64.28125 C 67.558594 64.28125 62.699219 59.378906 62.453125 59.121094 C 62.082031 58.730469 62.09375 58.117188 62.480469 57.742188 C 62.863281 57.371094 63.480469 57.378906 63.851562 57.765625 C 64.125 58.042969 70.644531 64.554688 82.890625 61.535156 C 83.414062 61.40625 83.941406 61.726562 84.070312 62.246094 C 84.195312 62.765625 83.878906 63.296875 83.359375 63.425781 C 80.898438 64.03125 78.644531 64.28125 76.605469 64.28125 Z M 76.605469 64.28125 " fill-opacity="0.2" fill-rule="nonzero"/><path fill="#050a01" d="M 89.832031 73.109375 C 89.535156 73.109375 89.246094 72.972656 89.054688 72.71875 C 87.703125 70.910156 85.464844 67.101562 85.710938 62.007812 C 86.074219 54.324219 91.835938 49.886719 92.988281 49.078125 C 93.425781 48.765625 94.035156 48.875 94.347656 49.3125 C 94.65625 49.75 94.550781 50.359375 94.113281 50.671875 C 93.089844 51.390625 87.984375 55.320312 87.664062 62.101562 C 87.449219 66.585938 89.425781 69.949219 90.621094 71.550781 C 90.945312 71.984375 90.855469 72.59375 90.421875 72.914062 C 90.242188 73.046875 90.039062 73.109375 89.832031 73.109375 Z M 89.832031 73.109375 " fill-opacity="0.2" fill-rule="nonzero"/><path fill="#050a01" d="M 104.691406 78.632812 C 104.507812 78.632812 104.316406 78.578125 104.152344 78.46875 C 100.101562 75.765625 96.847656 72.324219 94.492188 68.246094 C 93.363281 66.292969 92.453125 64.199219 91.78125 62.023438 C 91.625 61.503906 91.914062 60.960938 92.421875 60.804688 C 92.9375 60.644531 93.480469 60.9375 93.640625 61.445312 C 94.269531 63.484375 95.121094 65.441406 96.175781 67.265625 C 98.382812 71.085938 101.429688 74.308594 105.230469 76.839844 C 105.679688 77.136719 105.800781 77.742188 105.5 78.1875 C 105.3125 78.476562 105.003906 78.632812 104.691406 78.632812 Z M 104.691406 78.632812 " fill-opacity="0.2" fill-rule="nonzero"/><path fill="#050a01" d="M 95.800781 47.453125 C 89.625 47.453125 84.628906 44.394531 82.554688 42.902344 C 82.117188 42.585938 82.019531 41.976562 82.335938 41.542969 C 82.652344 41.105469 83.261719 41.007812 83.695312 41.324219 C 85.929688 42.9375 91.882812 46.539062 98.847656 45.222656 C 100.5 44.910156 102.109375 44.339844 103.640625 43.527344 C 104.117188 43.273438 104.707031 43.453125 104.953125 43.929688 C 105.207031 44.40625 105.027344 44.996094 104.550781 45.246094 C 102.847656 46.144531 101.050781 46.777344 99.210938 47.128906 C 98.042969 47.355469 96.902344 47.453125 95.800781 47.453125 Z M 95.800781 47.453125 " fill-opacity="0.2" fill-rule="nonzero"/><path fill="#050a01" d="M 73.140625 44.421875 C 72.679688 44.421875 72.269531 44.089844 72.1875 43.625 C 72.089844 43.09375 72.441406 42.585938 72.96875 42.488281 C 76.644531 41.816406 79.269531 40.175781 80.765625 37.609375 C 83.882812 32.265625 81.265625 24.539062 81.242188 24.460938 C 81.066406 23.953125 81.332031 23.398438 81.839844 23.222656 C 82.347656 23.050781 82.902344 23.316406 83.078125 23.824219 C 83.199219 24.171875 86.015625 32.460938 82.449219 38.582031 C 80.652344 41.667969 77.582031 43.625 73.316406 44.402344 C 73.257812 44.417969 73.195312 44.421875 73.140625 44.421875 Z M 73.140625 44.421875 " fill-opacity="0.2" fill-rule="nonzero"/><path fill="#050a01" d="M 103.210938 38.9375 C 103.058594 38.9375 102.910156 38.90625 102.769531 38.832031 C 90.285156 32.449219 90.988281 18.722656 90.992188 18.589844 C 91.027344 18.050781 91.488281 17.636719 92.023438 17.675781 C 92.558594 17.710938 92.96875 18.175781 92.933594 18.710938 C 92.90625 19.222656 92.324219 31.308594 103.648438 37.101562 C 104.125 37.347656 104.316406 37.9375 104.074219 38.414062 C 103.90625 38.746094 103.566406 38.9375 103.210938 38.9375 Z M 103.210938 38.9375 " fill-opacity="0.2" fill-rule="nonzero"/><path fill="#79c932" d="M 116.675781 119.429688 C 116.382812 119.132812 116.09375 118.835938 115.800781 118.53125 C 122.148438 110.042969 127.492188 100.160156 128.074219 90.464844 C 128.257812 87.34375 128.535156 81.394531 124.832031 75.992188 C 122.085938 71.988281 117.617188 68.957031 112.523438 67.773438 C 110.320312 67.257812 107.992188 67.097656 105.644531 67.347656 C 105.539062 67.359375 104.996094 67.425781 104.160156 67.601562 C 101.0625 68.265625 93.945312 70.476562 90.214844 77.191406 C 89.640625 78.226562 87.121094 83.003906 88.441406 91.539062 C 89.75 100.011719 94.355469 109.03125 99.683594 117.078125 C 99.832031 117.308594 99.984375 117.539062 100.140625 117.765625 C 93.367188 124.320312 86.902344 129.308594 85.199219 130.609375 C 88.046875 134.246094 90.898438 137.882812 93.746094 141.515625 C 95.65625 139.917969 101.472656 134.976562 107.796875 128.121094 C 108.035156 128.417969 108.273438 128.714844 108.511719 129 C 113.523438 135.144531 117.957031 139.730469 119.710938 141.515625 L 128.855469 130.609375 C 127.207031 129.25 122.183594 125.035156 116.675781 119.429688 Z M 98.46875 87.796875 C 98.519531 87.089844 98.578125 86.175781 98.726562 85.171875 C 99.097656 82.726562 100.007812 79.746094 102.589844 77.910156 C 105.8125 75.617188 110.746094 75.757812 113.941406 78.0625 C 116.628906 79.996094 117.570312 83.089844 117.960938 85.5 C 118.109375 86.386719 118.175781 87.183594 118.230469 87.796875 C 118.804688 94.449219 114.023438 102.328125 107.910156 109.523438 C 107.742188 109.3125 107.578125 109.097656 107.417969 108.882812 C 102.101562 101.917969 98.03125 94.347656 98.46875 87.796875 Z M 98.46875 87.796875 " fill-opacity="1" fill-rule="nonzero"/><path fill="#050a01" d="M 117.960938 85.5 C 117.570312 83.089844 116.628906 79.996094 113.941406 78.0625 C 110.742188 75.757812 105.8125 75.617188 102.589844 77.910156 C 100.011719 79.746094 99.101562 82.726562 98.726562 85.171875 C 98.800781 83.457031 98.992188 81.984375 99.195312 80.792969 C 100.074219 75.621094 101.929688 71.867188 102.972656 69.796875 C 103.382812 68.984375 103.785156 68.246094 104.15625 67.597656 C 104.988281 67.421875 105.535156 67.355469 105.640625 67.34375 C 107.992188 67.089844 110.3125 67.257812 112.519531 67.769531 C 112.933594 68.480469 113.371094 69.277344 113.8125 70.160156 C 116.113281 74.761719 116.996094 78.726562 117.332031 80.492188 C 117.601562 81.890625 117.84375 83.570312 117.960938 85.5 Z M 117.960938 85.5 " fill-opacity="0.2" fill-rule="nonzero"/><path fill="#050a01" d="M 116.675781 119.429688 C 115.390625 120.988281 114.070312 122.558594 112.726562 124.136719 C 111.316406 125.792969 109.910156 127.414062 108.511719 129 C 108.273438 128.707031 108.035156 128.417969 107.796875 128.121094 C 109.136719 126.613281 110.492188 125.046875 111.855469 123.414062 C 113.234375 121.769531 114.550781 120.136719 115.804688 118.535156 C 116.09375 118.832031 116.382812 119.132812 116.675781 119.429688 Z M 116.675781 119.429688 " fill-opacity="0.2" fill-rule="nonzero"/><path fill="#050a01" d="M 107.910156 109.523438 C 106.914062 110.761719 105.8125 112.054688 104.589844 113.375 C 103.066406 115.015625 101.566406 116.46875 100.128906 117.761719 C 99.972656 117.53125 99.824219 117.304688 99.671875 117.074219 C 101.097656 115.753906 102.570312 114.304688 104.054688 112.710938 C 105.265625 111.410156 106.386719 110.128906 107.414062 108.882812 C 107.582031 109.097656 107.75 109.3125 107.910156 109.523438 Z M 107.910156 109.523438 " fill-opacity="0.2" fill-rule="nonzero"/></svg>